<svg viewBox="0 0 397 215" fill="none" xmlns="http://www.w3.org/2000/svg">
<g clip-path="url(#clip0_88_263)">
<path d="M168.694 213.512C169.224 213.669 169.78 213.367 169.937 212.837L172.491 204.207C172.648 203.678 172.346 203.121 171.816 202.965C171.286 202.808 170.73 203.11 170.573 203.64L168.303 211.311L160.632 209.04C160.102 208.883 159.546 209.186 159.389 209.715C159.232 210.245 159.535 210.801 160.064 210.958L168.694 213.512ZM127.121 137.594L168.099 213.031L169.857 212.076L128.879 136.64L127.121 137.594Z" fill="#06D2E7"/>
<path d="M141.336 111.017C140.809 110.853 140.248 111.147 140.084 111.674L137.403 120.265C137.239 120.793 137.533 121.353 138.06 121.518C138.587 121.682 139.148 121.388 139.313 120.861L141.695 113.224L149.332 115.607C149.859 115.771 150.42 115.477 150.585 114.95C150.749 114.423 150.455 113.862 149.928 113.698L141.336 111.017ZM181.971 187.874L141.924 111.507L140.153 112.436L180.199 188.803L181.971 187.874Z" fill="#06D2E7"/>
<path d="M228.391 213.512C227.861 213.669 227.305 213.367 227.148 212.837L224.594 204.207C224.437 203.678 224.739 203.121 225.269 202.965C225.798 202.808 226.355 203.11 226.512 203.64L228.782 211.311L236.453 209.04C236.983 208.883 237.539 209.186 237.696 209.715C237.853 210.245 237.55 210.801 237.021 210.958L228.391 213.512ZM269.964 137.594L228.986 213.031L227.228 212.076L268.206 136.64L269.964 137.594Z" fill="#06D2E7"/>
<path d="M255.749 111.017C256.276 110.853 256.837 111.147 257.001 111.674L259.682 120.265C259.846 120.793 259.552 121.353 259.025 121.518C258.498 121.682 257.937 121.388 257.772 120.861L255.39 113.224L247.753 115.607C247.226 115.771 246.665 115.477 246.5 114.95C246.336 114.423 246.63 113.862 247.157 113.698L255.749 111.017ZM215.114 187.874L255.161 111.507L256.932 112.436L216.886 188.803L215.114 187.874Z" fill="#06D2E7"/>
<rect x="23.5" y="2.5" width="85" height="116" rx="2.5" fill="#142F4E" stroke="#D9D9D9" stroke-width="5"/>
<rect x="38" y="20" width="49" height="6" fill="#D9D9D9"/>
<rect x="38" y="30" width="49" height="6" fill="#D9D9D9"/>
<rect x="38" y="40" width="49" height="6" fill="#D9D9D9"/>
<rect x="38" y="50" width="33" height="6" fill="#D9D9D9"/>
<path d="M102.103 182.798L101.252 181.882C105.58 177.884 109.057 174.975 114.116 171.943C116.137 170.735 118.251 169.689 120.438 168.816L120.511 168.79C122.164 168.124 123.226 166.507 123.261 164.577C123.324 161.037 122.468 155.083 118.02 146.846C113.392 138.236 108.722 134.686 105.621 133.211C104.99 132.89 104.293 132.719 103.585 132.712C102.877 132.706 102.177 132.863 101.54 133.173L101.515 133.198L101.372 133.265C101.028 133.397 100.652 133.549 100.244 133.716C97.1584 134.961 91.9929 137.042 86.252 136.647C83.5594 136.428 80.8596 136.975 78.4658 138.226L68.3939 143.596L60.7373 149.126L60.0039 148.115L67.7617 142.516L77.8778 137.124C80.4818 135.771 83.4154 135.181 86.3405 135.422C91.7874 135.801 96.5957 133.862 99.776 132.579C100.158 132.424 100.516 132.263 100.844 132.153L100.873 132.134C101.689 131.711 102.593 131.488 103.512 131.483C104.431 131.478 105.338 131.692 106.159 132.105C109.424 133.644 114.33 137.352 119.12 146.265C123.697 154.739 124.579 160.92 124.51 164.612C124.513 165.757 124.177 166.878 123.544 167.834C122.911 168.789 122.01 169.536 120.953 169.981L120.881 170.006C118.761 170.845 116.711 171.848 114.748 173.007C109.791 175.988 106.351 178.856 102.103 182.798Z" fill="#D9D9D9" stroke="#D9D9D9" stroke-width="3" stroke-miterlimit="10"/>
<path d="M96.3846 191.42H96.2138C94.5837 191.376 93.0133 190.798 91.7438 189.775L92.5246 188.799C93.5807 189.65 94.8862 190.132 96.2423 190.173C97.0567 190.207 97.8679 190.051 98.6111 189.717C99.3543 189.382 100.009 188.879 100.523 188.246C101.135 187.453 101.513 186.505 101.614 185.509C101.715 184.513 101.535 183.508 101.095 182.609C100.685 181.717 100.072 180.934 99.3056 180.322L78.8774 163.986C76.8953 162.442 75.9121 161.776 75.0428 161.144C73.3649 159.982 71.7464 158.737 70.1934 157.414L70.9932 156.466C72.5176 157.769 74.1077 158.993 75.7572 160.133C76.6392 160.746 77.6382 161.438 79.6551 163.011L100.086 179.349C101.004 180.085 101.738 181.023 102.23 182.091C102.77 183.201 102.989 184.441 102.86 185.669C102.731 186.897 102.259 188.065 101.499 189.039C100.881 189.794 100.1 190.401 99.2141 190.813C98.3285 191.225 97.3614 191.433 96.3846 191.42Z" fill="#D9D9D9" stroke="#D9D9D9" stroke-width="3" stroke-miterlimit="10"/>
<path d="M21.4903 175.944C20.6368 175.218 19.7453 174.479 18.7084 173.639C17.8991 172.979 16.9918 172.236 15.9359 171.352C13.9372 169.68 11.8246 168.149 9.61338 166.769H9.59125C8.53663 166.134 7.68629 165.211 7.1411 164.108C6.59591 163.005 6.37873 161.769 6.51533 160.547C6.99268 156.801 8.87997 150.778 15.1994 143.318C21.8064 135.529 27.756 132.987 31.5748 132.225C32.5601 132.02 33.5782 132.03 34.5592 132.255C35.5403 132.48 36.4612 132.913 37.2588 133.527L37.2967 133.558C38.6308 134.383 39.7593 135.472 40.9511 136.625C43.1862 138.786 45.497 141.022 49.6826 142.162C49.8881 142.225 54.3423 143.615 60.706 148.112L59.9852 149.129C53.8017 144.761 49.3791 143.378 49.3348 143.362C44.8585 142.143 42.32 139.686 40.0818 137.522C38.9184 136.398 37.8215 135.337 36.5759 134.582L36.4463 134.474C35.7944 133.983 35.0444 133.637 34.247 133.459C33.4497 133.282 32.6236 133.278 31.8245 133.448C28.1954 134.158 22.5335 136.613 16.1541 144.133C10.0338 151.353 8.21294 157.123 7.76403 160.689C7.64816 161.669 7.81912 162.661 8.25621 163.546C8.6933 164.43 9.37776 165.169 10.2267 165.673H10.2456C12.5212 167.092 14.6942 168.669 16.7484 170.392C17.8011 171.273 18.7021 172.009 19.5082 172.666C20.5546 173.519 21.4555 174.245 22.3122 175.006L21.4903 175.944Z" fill="#D9D9D9" stroke="#D9D9D9" stroke-width="3" stroke-miterlimit="10"/>
<path d="M67.4429 213.526H67.2754C65.0814 213.476 62.3912 212.339 60.074 210.482L56.6914 207.778L57.4754 206.802L60.858 209.506C62.9665 211.198 65.3754 212.234 67.3038 212.279C68.3824 212.337 69.4431 211.985 70.2723 211.293C71.6885 210.235 72.463 208.883 72.4852 207.459C72.4771 206.742 72.3034 206.037 71.9777 205.398C71.652 204.759 71.183 204.204 70.6074 203.776L71.3882 202.8L74.2333 205.068C75.291 205.921 76.5986 206.406 77.9573 206.448C78.7715 206.479 79.5816 206.32 80.3242 205.985C81.0669 205.651 81.7218 205.148 82.2377 204.518C82.6627 203.983 82.9771 203.368 83.1627 202.709C83.3483 202.051 83.4014 201.363 83.3189 200.684C83.121 199.074 82.2964 197.607 81.0238 196.6L81.8014 195.624L85.105 198.274C87.8458 200.169 91.162 199.955 92.9576 197.712C93.4053 197.146 93.7301 196.492 93.9113 195.793C94.0926 195.095 94.1263 194.366 94.0103 193.653C93.7655 192.125 92.9555 190.745 91.7405 189.784L92.5245 188.799C93.9852 189.954 94.957 191.616 95.2464 193.455C95.3886 194.337 95.3454 195.24 95.1196 196.105C94.8937 196.97 94.4901 197.779 93.9344 198.48C91.7531 201.202 87.6372 201.543 84.3589 199.263L84.2672 199.187C84.4069 199.628 84.5032 200.082 84.5549 200.542C84.6682 201.464 84.5787 202.399 84.2926 203.283C84.0065 204.167 83.5308 204.977 82.8986 205.658C82.2664 206.339 81.4929 206.874 80.6324 207.226C79.7718 207.577 78.8448 207.736 77.9162 207.693C76.3467 207.647 74.8314 207.109 73.5853 206.155C73.6874 206.587 73.7362 207.03 73.7307 207.475C73.7022 209.294 72.7475 210.996 71.0436 212.269C70.0344 213.108 68.7556 213.555 67.4429 213.526Z" fill="#D9D9D9" stroke="#D9D9D9" stroke-width="3" stroke-miterlimit="10"/>
<path d="M47.6787 200.561L47.666 200.548L48.5733 199.686L47.6787 200.561Z" fill="#D9D9D9" stroke="#D9D9D9" stroke-width="3" stroke-miterlimit="10"/>
<path d="M68.9097 178.086C66.4187 178.086 64.1678 176.693 62.78 174.097L55.4174 160.316C53.7546 157.209 53.3246 154.631 54.0992 152.468L54.1624 152.285L54.3204 152.171L66.5704 143.375L67.3007 144.389L55.2151 153.068C54.6555 154.856 55.0823 157.038 56.5207 159.729L63.8802 173.509C65.9761 177.422 69.4377 177.366 71.9794 176.011C73.9046 174.975 75.9815 171.955 73.8002 167.875L69.4693 159.773L70.895 151.631L72.1248 151.846L70.7749 159.565L74.9162 167.287C77.2271 171.614 75.4378 175.578 72.5832 177.11C71.4585 177.734 70.1962 178.069 68.9097 178.086Z" fill="#D9D9D9" stroke="#D9D9D9" stroke-width="3" stroke-miterlimit="10"/>
<path d="M27.2598 184.911C27.048 184.911 26.833 184.911 26.6275 184.883C25.3161 184.758 24.071 184.248 23.0494 183.418C22.0277 182.587 21.2752 181.472 20.887 180.215C20.4987 178.957 20.4921 177.613 20.8678 176.351C21.2436 175.09 21.985 173.968 22.9984 173.127L29.2451 167.969L30.949 166.974C31.9771 166.56 33.0927 166.409 34.194 166.537C35.2953 166.664 36.3472 167.064 37.2537 167.702C38.1603 168.339 38.8926 169.193 39.3839 170.186C39.8751 171.179 40.1097 172.279 40.0661 173.386C40.0353 174.325 39.8052 175.247 39.391 176.09C38.9768 176.933 38.388 177.679 37.6636 178.278L31.4991 183.382C30.3103 184.375 28.809 184.916 27.2598 184.911ZM29.9153 169.021L23.7887 174.09C22.6832 175.005 21.9869 176.322 21.8529 177.75C21.719 179.178 22.1583 180.601 23.0743 181.705C23.9902 182.81 25.3078 183.505 26.7372 183.639C28.1666 183.773 29.5906 183.334 30.6961 182.419L36.8606 177.315C37.4486 176.828 37.9265 176.222 38.2627 175.538C38.5989 174.853 38.7859 174.104 38.8111 173.342C38.8624 172.018 38.4222 170.722 37.575 169.703C36.8464 168.835 35.8645 168.217 34.7666 167.933C33.6687 167.65 32.5098 167.717 31.4516 168.124L29.9153 169.021Z" fill="#D9D9D9" stroke="#D9D9D9" stroke-width="3" stroke-miterlimit="10"/>
<path d="M42.6456 203.473C41.2752 203.478 39.9366 203.061 38.8125 202.278C37.6884 201.494 36.8336 200.384 36.3647 199.097C35.8958 197.811 35.8357 196.411 36.1927 195.089C36.5496 193.767 37.3061 192.587 38.359 191.711L44.5677 186.588C45.5572 185.771 46.762 185.258 48.0369 185.109C49.3118 184.961 50.6026 185.183 51.7537 185.751C52.9048 186.318 53.8672 187.206 54.525 188.307C55.1829 189.408 55.5081 190.676 55.4615 191.957C55.4289 192.896 55.1976 193.818 54.783 194.661C54.3683 195.504 53.7797 196.25 53.0557 196.85L46.8944 201.96C45.6974 202.943 44.1949 203.478 42.6456 203.473ZM48.8007 186.307C47.5457 186.306 46.3296 186.741 45.3612 187.539L39.1588 192.671C38.0546 193.59 37.3609 194.91 37.2305 196.34C37.1001 197.769 37.5435 199.192 38.4633 200.296C39.383 201.399 40.7037 202.092 42.1349 202.222C43.5661 202.352 44.9904 201.909 46.0946 200.99L52.2623 195.877C52.8495 195.389 53.3269 194.782 53.6631 194.097C53.9992 193.412 54.1866 192.663 54.2128 191.901C54.2391 191.175 54.1186 190.451 53.8583 189.773C53.5981 189.094 53.2034 188.475 52.6981 187.953C52.1927 187.431 51.5871 187.016 50.9174 186.733C50.2477 186.45 49.5277 186.305 48.8007 186.307Z" fill="#D9D9D9" stroke="#D9D9D9" stroke-width="3" stroke-miterlimit="10"/>
<path d="M34.9385 194.194C34.7267 194.194 34.5181 194.194 34.3063 194.165C33.005 194.037 31.7704 193.529 30.7574 192.703C29.7444 191.877 28.9981 190.77 28.6122 189.522C28.2262 188.274 28.2178 186.939 28.588 185.686C28.9582 184.434 29.6904 183.318 30.693 182.479L39.1241 175.493C40.1097 174.678 41.3097 174.166 42.5798 174.017C43.85 173.868 45.1362 174.088 46.2839 174.652C47.4316 175.216 48.3918 176.099 49.0492 177.195C49.7065 178.291 50.033 179.553 49.9894 180.83C49.9575 181.765 49.728 182.683 49.3162 183.522C48.9043 184.362 48.3192 185.106 47.5995 185.704L39.1589 192.681C37.9733 193.664 36.4794 194.2 34.9385 194.194ZM43.3412 175.218C42.0931 175.214 40.8835 175.649 39.9239 176.446L31.4928 183.43C30.393 184.341 29.7 185.651 29.5661 187.072C29.4321 188.493 29.8681 189.91 30.7783 191.01C31.6927 192.106 33.0044 192.795 34.4263 192.927C35.8482 193.059 37.2646 192.623 38.3654 191.714L46.8091 184.734C47.6318 184.056 48.2342 183.15 48.5395 182.129C48.8448 181.108 48.8394 180.02 48.5238 179.002C48.2083 177.985 47.5969 177.084 46.7675 176.415C45.9381 175.745 44.9281 175.337 43.866 175.243C43.6858 175.218 43.5119 175.218 43.3412 175.218Z" fill="#D9D9D9" stroke="#D9D9D9" stroke-width="3" stroke-miterlimit="10"/>
<path d="M51.5003 210.854C50.6306 210.858 49.7698 210.679 48.9735 210.33C48.1772 209.98 47.4631 209.468 46.8774 208.826C46.2917 208.183 45.8474 207.425 45.5731 206.601C45.2989 205.776 45.2008 204.903 45.2853 204.038C45.3566 203.225 45.5889 202.434 45.9688 201.711C46.3487 200.989 46.8685 200.349 47.4981 199.828L50.4571 197.377C50.6255 197.245 50.8018 197.122 50.985 197.011C52.314 196.123 53.9336 195.778 55.5094 196.049C57.0851 196.32 58.4967 197.185 59.4526 198.465C60.4085 199.746 60.8356 201.344 60.6459 202.93C60.4562 204.516 59.664 205.969 58.433 206.988L55.4741 209.439C54.3543 210.358 52.9492 210.858 51.5003 210.854ZM54.4656 197.188C53.2959 197.202 52.1652 197.61 51.2569 198.347L48.3106 200.801C47.2933 201.644 46.6522 202.856 46.5278 204.171C46.4033 205.486 46.8057 206.797 47.6467 207.816C48.4951 208.832 49.7119 209.471 51.0307 209.593C52.3496 209.715 53.6631 209.31 54.6837 208.466L57.6427 206.016C58.1818 205.564 58.6193 205.005 58.9266 204.373C59.2339 203.741 59.4039 203.051 59.4256 202.349C59.4512 201.681 59.3415 201.014 59.1033 200.389C58.8651 199.765 58.5032 199.194 58.0392 198.712C57.5753 198.231 57.0189 197.847 56.4032 197.585C55.7875 197.323 55.1253 197.188 54.4561 197.188H54.4656Z" fill="#D9D9D9" stroke="#D9D9D9" stroke-width="3" stroke-miterlimit="10"/>
<path d="M80.0613 179.113L79.2949 180.098L91.7493 189.771L92.5157 188.786L80.0613 179.113Z" fill="#D9D9D9" stroke="#D9D9D9" stroke-width="3" stroke-miterlimit="10"/>
<path d="M71.3005 187.474L70.5322 188.462L81.0224 196.609L81.7907 195.621L71.3005 187.474Z" fill="#D9D9D9" stroke="#D9D9D9" stroke-width="3" stroke-miterlimit="10"/>
<path d="M62.483 195.887L61.7148 196.875L70.6163 203.785L71.3845 202.798L62.483 195.887Z" fill="#D9D9D9" stroke="#D9D9D9" stroke-width="3" stroke-miterlimit="10"/>
<path d="M81.785 163.216C78.5479 163.216 76.7523 162.325 76.5879 162.24L77.1632 161.131L76.8756 161.684L77.1601 161.131C77.2486 161.172 85.9137 165.373 100.554 153.968L101.322 154.95C92.6472 161.703 85.9959 163.216 81.785 163.216Z" fill="#D9D9D9" stroke="#D9D9D9" stroke-width="3" stroke-miterlimit="10"/>
<rect x="288.5" y="3.5" width="85" height="116" rx="2.5" fill="#142F4E" stroke="#D9D9D9" stroke-width="5"/>
<rect x="303" y="21" width="49" height="6" fill="#D9D9D9"/>
<rect x="303" y="31" width="49" height="6" fill="#D9D9D9"/>
<rect x="303" y="41" width="49" height="6" fill="#D9D9D9"/>
<rect x="303" y="51" width="33" height="6" fill="#D9D9D9"/>
<path d="M368.103 182.798L367.252 181.882C371.58 177.884 375.057 174.975 380.116 171.943C382.137 170.735 384.251 169.689 386.438 168.816L386.511 168.79C388.164 168.124 389.226 166.507 389.261 164.577C389.324 161.037 388.468 155.083 384.02 146.846C379.392 138.236 374.722 134.686 371.621 133.211C370.99 132.89 370.293 132.719 369.585 132.712C368.877 132.706 368.177 132.863 367.54 133.173L367.515 133.198L367.372 133.265C367.028 133.397 366.652 133.549 366.244 133.716C363.158 134.961 357.993 137.042 352.252 136.647C349.559 136.428 346.86 136.975 344.466 138.226L334.394 143.596L326.737 149.126L326.004 148.115L333.762 142.516L343.878 137.124C346.482 135.771 349.415 135.181 352.341 135.422C357.787 135.801 362.596 133.862 365.776 132.579C366.158 132.424 366.516 132.263 366.844 132.153L366.873 132.134C367.689 131.711 368.593 131.488 369.512 131.483C370.431 131.478 371.338 131.692 372.159 132.105C375.424 133.644 380.33 137.352 385.12 146.265C389.697 154.739 390.579 160.92 390.51 164.612C390.513 165.757 390.177 166.878 389.544 167.834C388.911 168.789 388.01 169.536 386.953 169.981L386.881 170.006C384.761 170.845 382.711 171.848 380.748 173.007C375.791 175.988 372.351 178.856 368.103 182.798Z" fill="#D9D9D9" stroke="#D9D9D9" stroke-width="3" stroke-miterlimit="10"/>
<path d="M362.385 191.42H362.214C360.584 191.376 359.013 190.798 357.744 189.775L358.525 188.799C359.581 189.65 360.886 190.132 362.242 190.173C363.057 190.207 363.868 190.051 364.611 189.717C365.354 189.382 366.009 188.879 366.523 188.246C367.135 187.453 367.513 186.505 367.614 185.509C367.715 184.513 367.535 183.508 367.095 182.609C366.685 181.717 366.072 180.934 365.306 180.322L344.877 163.986C342.895 162.442 341.912 161.776 341.043 161.144C339.365 159.982 337.746 158.737 336.193 157.414L336.993 156.466C338.518 157.769 340.108 158.993 341.757 160.133C342.639 160.746 343.638 161.438 345.655 163.011L366.086 179.349C367.004 180.085 367.738 181.023 368.23 182.091C368.77 183.201 368.989 184.441 368.86 185.669C368.731 186.897 368.259 188.065 367.499 189.039C366.881 189.794 366.1 190.401 365.214 190.813C364.329 191.225 363.361 191.433 362.385 191.42Z" fill="#D9D9D9" stroke="#D9D9D9" stroke-width="3" stroke-miterlimit="10"/>
<path d="M287.49 175.944C286.637 175.218 285.745 174.479 284.708 173.639C283.899 172.979 282.992 172.236 281.936 171.352C279.937 169.68 277.825 168.149 275.613 166.769H275.591C274.537 166.134 273.686 165.211 273.141 164.108C272.596 163.005 272.379 161.769 272.515 160.547C272.993 156.801 274.88 150.778 281.199 143.318C287.806 135.529 293.756 132.987 297.575 132.225C298.56 132.02 299.578 132.03 300.559 132.255C301.54 132.48 302.461 132.913 303.259 133.527L303.297 133.558C304.631 134.383 305.759 135.472 306.951 136.625C309.186 138.786 311.497 141.022 315.683 142.162C315.888 142.225 320.342 143.615 326.706 148.112L325.985 149.129C319.802 144.761 315.379 143.378 315.335 143.362C310.858 142.143 308.32 139.686 306.082 137.522C304.918 136.398 303.821 135.337 302.576 134.582L302.446 134.474C301.794 133.983 301.044 133.637 300.247 133.459C299.45 133.282 298.624 133.278 297.825 133.448C294.195 134.158 288.534 136.613 282.154 144.133C276.034 151.353 274.213 157.123 273.764 160.689C273.648 161.669 273.819 162.661 274.256 163.546C274.693 164.43 275.378 165.169 276.227 165.673H276.246C278.521 167.092 280.694 168.669 282.748 170.392C283.801 171.273 284.702 172.009 285.508 172.666C286.555 173.519 287.456 174.245 288.312 175.006L287.49 175.944Z" fill="#D9D9D9" stroke="#D9D9D9" stroke-width="3" stroke-miterlimit="10"/>
<path d="M333.443 213.526H333.275C331.081 213.476 328.391 212.339 326.074 210.482L322.691 207.778L323.475 206.802L326.858 209.506C328.967 211.198 331.375 212.234 333.304 212.279C334.382 212.337 335.443 211.985 336.272 211.293C337.689 210.235 338.463 208.883 338.485 207.459C338.477 206.742 338.303 206.037 337.978 205.398C337.652 204.759 337.183 204.204 336.607 203.776L337.388 202.8L340.233 205.068C341.291 205.921 342.599 206.406 343.957 206.448C344.771 206.479 345.582 206.32 346.324 205.985C347.067 205.651 347.722 205.148 348.238 204.518C348.663 203.983 348.977 203.368 349.163 202.709C349.348 202.051 349.401 201.363 349.319 200.684C349.121 199.074 348.296 197.607 347.024 196.6L347.801 195.624L351.105 198.274C353.846 200.169 357.162 199.955 358.958 197.712C359.405 197.146 359.73 196.492 359.911 195.793C360.093 195.095 360.126 194.366 360.01 193.653C359.765 192.125 358.955 190.745 357.74 189.784L358.524 188.799C359.985 189.954 360.957 191.616 361.246 193.455C361.389 194.337 361.345 195.24 361.12 196.105C360.894 196.97 360.49 197.779 359.934 198.48C357.753 201.202 353.637 201.543 350.359 199.263L350.267 199.187C350.407 199.628 350.503 200.082 350.555 200.542C350.668 201.464 350.579 202.399 350.293 203.283C350.007 204.167 349.531 204.977 348.899 205.658C348.266 206.339 347.493 206.874 346.632 207.226C345.772 207.577 344.845 207.736 343.916 207.693C342.347 207.647 340.831 207.109 339.585 206.155C339.687 206.587 339.736 207.03 339.731 207.475C339.702 209.294 338.748 210.996 337.044 212.269C336.034 213.108 334.756 213.555 333.443 213.526Z" fill="#D9D9D9" stroke="#D9D9D9" stroke-width="3" stroke-miterlimit="10"/>
<path d="M313.679 200.561L313.666 200.548L314.573 199.686L313.679 200.561Z" fill="#D9D9D9" stroke="#D9D9D9" stroke-width="3" stroke-miterlimit="10"/>
<path d="M334.91 178.086C332.419 178.086 330.168 176.693 328.78 174.097L321.417 160.316C319.755 157.209 319.325 154.631 320.099 152.468L320.162 152.285L320.32 152.171L332.57 143.375L333.301 144.389L321.215 153.068C320.656 154.856 321.082 157.038 322.521 159.729L329.88 173.509C331.976 177.422 335.438 177.366 337.979 176.011C339.905 174.975 341.982 171.955 339.8 167.875L335.469 159.773L336.895 151.631L338.125 151.846L336.775 159.565L340.916 167.287C343.227 171.614 341.438 175.578 338.583 177.11C337.459 177.734 336.196 178.069 334.91 178.086Z" fill="#D9D9D9" stroke="#D9D9D9" stroke-width="3" stroke-miterlimit="10"/>
<path d="M293.26 184.911C293.048 184.911 292.833 184.911 292.628 184.883C291.316 184.758 290.071 184.248 289.049 183.418C288.028 182.587 287.275 181.472 286.887 180.215C286.499 178.957 286.492 177.613 286.868 176.351C287.244 175.09 287.985 173.968 288.998 173.127L295.245 167.969L296.949 166.974C297.977 166.56 299.093 166.409 300.194 166.537C301.295 166.664 302.347 167.064 303.254 167.702C304.16 168.339 304.893 169.193 305.384 170.186C305.875 171.179 306.11 172.279 306.066 173.386C306.035 174.325 305.805 175.247 305.391 176.09C304.977 176.933 304.388 177.679 303.664 178.278L297.499 183.382C296.31 184.375 294.809 184.916 293.26 184.911ZM295.915 169.021L289.789 174.09C288.683 175.005 287.987 176.322 287.853 177.75C287.719 179.178 288.158 180.601 289.074 181.705C289.99 182.81 291.308 183.505 292.737 183.639C294.167 183.773 295.591 183.334 296.696 182.419L302.861 177.315C303.449 176.828 303.926 176.222 304.263 175.538C304.599 174.853 304.786 174.104 304.811 173.342C304.862 172.018 304.422 170.722 303.575 169.703C302.846 168.835 301.864 168.217 300.767 167.933C299.669 167.65 298.51 167.717 297.452 168.124L295.915 169.021Z" fill="#D9D9D9" stroke="#D9D9D9" stroke-width="3" stroke-miterlimit="10"/>
<path d="M308.646 203.473C307.275 203.478 305.937 203.061 304.813 202.278C303.688 201.494 302.834 200.384 302.365 199.097C301.896 197.811 301.836 196.411 302.193 195.089C302.55 193.767 303.306 192.587 304.359 191.711L310.568 186.588C311.557 185.771 312.762 185.258 314.037 185.109C315.312 184.961 316.603 185.183 317.754 185.751C318.905 186.318 319.867 187.206 320.525 188.307C321.183 189.408 321.508 190.676 321.461 191.957C321.429 192.896 321.198 193.818 320.783 194.661C320.368 195.504 319.78 196.25 319.056 196.85L312.894 201.96C311.697 202.943 310.195 203.478 308.646 203.473ZM314.801 186.307C313.546 186.306 312.33 186.741 311.361 187.539L305.159 192.671C304.055 193.59 303.361 194.91 303.231 196.34C303.1 197.769 303.544 199.192 304.463 200.296C305.383 201.399 306.704 202.092 308.135 202.222C309.566 202.352 310.99 201.909 312.095 200.99L318.262 195.877C318.85 195.389 319.327 194.782 319.663 194.097C319.999 193.412 320.187 192.663 320.213 191.901C320.239 191.175 320.119 190.451 319.858 189.773C319.598 189.094 319.203 188.475 318.698 187.953C318.193 187.431 317.587 187.016 316.917 186.733C316.248 186.45 315.528 186.305 314.801 186.307Z" fill="#D9D9D9" stroke="#D9D9D9" stroke-width="3" stroke-miterlimit="10"/>
<path d="M300.939 194.194C300.727 194.194 300.518 194.194 300.306 194.165C299.005 194.037 297.77 193.529 296.757 192.703C295.744 191.877 294.998 190.77 294.612 189.522C294.226 188.274 294.218 186.939 294.588 185.686C294.958 184.434 295.69 183.318 296.693 182.479L305.124 175.493C306.11 174.678 307.31 174.166 308.58 174.017C309.85 173.868 311.136 174.088 312.284 174.652C313.432 175.216 314.392 176.099 315.049 177.195C315.707 178.291 316.033 179.553 315.989 180.83C315.957 181.765 315.728 182.683 315.316 183.522C314.904 184.362 314.319 185.106 313.599 185.704L305.159 192.681C303.973 193.664 302.479 194.2 300.939 194.194ZM309.341 175.218C308.093 175.214 306.883 175.649 305.924 176.446L297.493 183.43C296.393 184.341 295.7 185.651 295.566 187.072C295.432 188.493 295.868 189.91 296.778 191.01C297.693 192.106 299.004 192.795 300.426 192.927C301.848 193.059 303.265 192.623 304.365 191.714L312.809 184.734C313.632 184.056 314.234 183.15 314.54 182.129C314.845 181.108 314.839 180.02 314.524 179.002C314.208 177.985 313.597 177.084 312.767 176.415C311.938 175.745 310.928 175.337 309.866 175.243C309.686 175.218 309.512 175.218 309.341 175.218Z" fill="#D9D9D9" stroke="#D9D9D9" stroke-width="3" stroke-miterlimit="10"/>
<path d="M317.5 210.854C316.631 210.858 315.77 210.679 314.974 210.33C314.177 209.98 313.463 209.468 312.877 208.826C312.292 208.183 311.847 207.425 311.573 206.601C311.299 205.776 311.201 204.903 311.285 204.038C311.357 203.225 311.589 202.434 311.969 201.711C312.349 200.989 312.869 200.349 313.498 199.828L316.457 197.377C316.626 197.245 316.802 197.122 316.985 197.011C318.314 196.123 319.934 195.778 321.509 196.049C323.085 196.32 324.497 197.185 325.453 198.465C326.408 199.746 326.836 201.344 326.646 202.93C326.456 204.516 325.664 205.969 324.433 206.988L321.474 209.439C320.354 210.358 318.949 210.858 317.5 210.854ZM320.466 197.188C319.296 197.202 318.165 197.61 317.257 198.347L314.311 200.801C313.293 201.644 312.652 202.856 312.528 204.171C312.403 205.486 312.806 206.797 313.647 207.816C314.495 208.832 315.712 209.471 317.031 209.593C318.35 209.715 319.663 209.31 320.684 208.466L323.643 206.016C324.182 205.564 324.619 205.005 324.927 204.373C325.234 203.741 325.404 203.051 325.426 202.349C325.451 201.681 325.342 201.014 325.103 200.389C324.865 199.765 324.503 199.194 324.039 198.712C323.575 198.231 323.019 197.847 322.403 197.585C321.788 197.323 321.125 197.188 320.456 197.188H320.466Z" fill="#D9D9D9" stroke="#D9D9D9" stroke-width="3" stroke-miterlimit="10"/>
<path d="M346.061 179.113L345.295 180.098L357.749 189.771L358.516 188.786L346.061 179.113Z" fill="#D9D9D9" stroke="#D9D9D9" stroke-width="3" stroke-miterlimit="10"/>
<path d="M337.301 187.474L336.532 188.462L347.022 196.609L347.791 195.621L337.301 187.474Z" fill="#D9D9D9" stroke="#D9D9D9" stroke-width="3" stroke-miterlimit="10"/>
<path d="M328.483 195.887L327.715 196.875L336.616 203.785L337.384 202.798L328.483 195.887Z" fill="#D9D9D9" stroke="#D9D9D9" stroke-width="3" stroke-miterlimit="10"/>
<path d="M347.785 163.216C344.548 163.216 342.752 162.325 342.588 162.24L343.163 161.131L342.876 161.684L343.16 161.131C343.249 161.172 351.914 165.373 366.554 153.968L367.322 154.95C358.647 161.703 351.996 163.216 347.785 163.216Z" fill="#D9D9D9" stroke="#D9D9D9" stroke-width="3" stroke-miterlimit="10"/>
</g>
<defs>
<clipPath id="clip0_88_263">
<rect width="397" height="215" fill="white"/>
</clipPath>
</defs>
</svg>
