<svg viewBox="0 0 157 163" fill="none" xmlns="http://www.w3.org/2000/svg">
<rect x="29.2617" width="126.864" height="162.089" rx="5" fill="white"/>
<path d="M29.4868 4.99999C29.4868 2.51471 31.5015 0.5 33.9868 0.5H81.5991V161.589H33.9868C31.5015 161.589 29.4868 159.574 29.4868 157.089V4.99999Z" fill="#142F4E" stroke="#06D2E7"/>
<circle cx="55.1302" cy="23.9419" r="13.4845" fill="white"/>
<mask id="mask0_213_6" style="mask-type:alpha" maskUnits="userSpaceOnUse" x="41" y="9" width="29" height="29">
<circle cx="55.1288" cy="23.3914" r="14.0348" fill="white"/>
</mask>
<g mask="url(#mask0_213_6)">
<ellipse cx="54.9909" cy="18.3003" rx="4.81588" ry="5.09107" fill="#D9D9D9"/>
<path d="M47.6985 30.684C47.6985 26.6564 50.9635 23.3914 54.9911 23.3914C59.0187 23.3914 62.2837 26.6564 62.2837 30.684V37.4263H47.6985V30.684Z" fill="#D9D9D9"/>
</g>
<rect x="34.4399" y="50.0347" width="41.9301" height="5.32944" stroke="#06D2E7"/>
<rect x="34.4399" y="66.5463" width="6.70541" height="5.32944" stroke="#06D2E7"/>
<rect x="34.4399" y="76.7285" width="6.70541" height="5.32944" stroke="#06D2E7"/>
<rect x="34.4399" y="86.9106" width="6.70541" height="5.32944" stroke="#06D2E7"/>
<rect x="46.5474" y="66.5463" width="29.8216" height="5.32944" stroke="#D9D9D9"/>
<rect x="46.5474" y="76.7285" width="29.8216" height="5.32944" stroke="#D9D9D9"/>
<rect x="46.5474" y="86.9106" width="29.8216" height="5.32944" stroke="#D9D9D9"/>
<rect x="34.4399" y="116.631" width="41.9301" height="2.30232" stroke="#D9D9D9"/>
<rect x="34.4399" y="130.666" width="41.9301" height="2.30232" stroke="#D9D9D9"/>
<rect x="98.8345" y="135.345" width="6.70541" height="5.32944" stroke="#6F6F6F"/>
<rect x="98.8345" y="145.527" width="6.70541" height="5.32944" stroke="#6F6F6F"/>
<rect x="116.447" y="135.345" width="6.70541" height="5.32944" stroke="#6F6F6F"/>
<rect x="116.447" y="145.527" width="6.70541" height="5.32944" stroke="#6F6F6F"/>
<rect x="134.059" y="135.345" width="6.70541" height="5.32944" stroke="#6F6F6F"/>
<rect x="134.059" y="145.527" width="6.70541" height="5.32944" stroke="#6F6F6F"/>
<rect x="98.8345" y="10.9574" width="41.9301" height="5.32944" stroke="#06D2E7"/>
<rect x="98.8345" y="20.8643" width="29.8216" height="5.32944" stroke="#6F6F6F"/>
<rect x="98.8345" y="30.2209" width="41.9301" height="1.20154" stroke="#6F6F6F"/>
<rect x="98.8345" y="33.5232" width="41.9301" height="1.20154" stroke="#6F6F6F"/>
<rect x="98.8345" y="36.8255" width="41.9301" height="1.20154" stroke="#6F6F6F"/>
<circle cx="89.9422" cy="13.0717" r="3.21511" stroke="#06D2E7"/>
<rect x="98.8345" y="42.8798" width="41.9301" height="5.32944" stroke="#06D2E7"/>
<rect x="98.8345" y="52.7867" width="29.8216" height="5.32944" stroke="#6F6F6F"/>
<rect x="98.8345" y="62.1432" width="41.9301" height="1.20154" stroke="#6F6F6F"/>
<rect x="98.8345" y="65.4456" width="41.9301" height="1.20154" stroke="#6F6F6F"/>
<rect x="98.8345" y="68.7479" width="41.9301" height="1.20154" stroke="#6F6F6F"/>
<circle cx="89.9422" cy="44.9941" r="3.21511" stroke="#06D2E7"/>
<rect x="98.8345" y="74.8021" width="41.9301" height="5.32944" stroke="#06D2E7"/>
<rect x="98.8345" y="84.7091" width="29.8216" height="5.32944" stroke="#6F6F6F"/>
<rect x="98.8345" y="94.0657" width="41.9301" height="1.20154" stroke="#6F6F6F"/>
<rect x="98.8345" y="97.368" width="41.9301" height="1.20154" stroke="#6F6F6F"/>
<rect x="98.8345" y="100.67" width="41.9301" height="1.20154" stroke="#6F6F6F"/>
<circle cx="89.9422" cy="76.9165" r="3.21511" stroke="#06D2E7"/>
<rect x="98.8345" y="106.725" width="41.9301" height="5.32944" stroke="#06D2E7"/>
<rect x="98.8345" y="116.631" width="29.8216" height="5.32944" stroke="#6F6F6F"/>
<circle cx="89.9422" cy="108.839" r="3.21511" stroke="#06D2E7"/>
<circle cx="1.62831" cy="1.62831" r="1.62831" transform="matrix(-1 0 0 1 3.25659 88.7427)" fill="#06D2E7"/>
<path d="M4.0708 90.371H32.5662" stroke="#06D2E7"/>
<circle cx="1.62831" cy="1.62831" r="1.62831" transform="matrix(-1 0 0 1 3.25659 5.6991)" fill="#06D2E7"/>
<circle cx="1.62831" cy="1.62831" r="1.62831" transform="matrix(-1 0 0 1 3.25659 150)" fill="#06D2E7"/>
<path d="M4.0708 7.32739L88.7427 7.32739" stroke="#06D2E7"/>
<path d="M4.0708 151.919H88.7427" stroke="#06D2E7"/>
<path d="M47.975 39.6278L48.2222 40.3884L49.0219 40.3884L48.3749 40.8585L48.6221 41.6191L47.975 41.149L47.328 41.6191L47.5752 40.8585L46.9281 40.3884L47.7279 40.3884L47.975 39.6278Z" fill="#D9D9D9"/>
<path d="M51.5522 39.6278L51.7993 40.3884L52.5991 40.3884L51.9521 40.8585L52.1992 41.6191L51.5522 41.149L50.9052 41.6191L51.1523 40.8585L50.5053 40.3884L51.305 40.3884L51.5522 39.6278Z" fill="#D9D9D9"/>
<path d="M55.1301 39.6278L55.3772 40.3884L56.177 40.3884L55.5299 40.8585L55.7771 41.6191L55.1301 41.149L54.4831 41.6191L54.7302 40.8585L54.0832 40.3884L54.8829 40.3884L55.1301 39.6278Z" fill="#D9D9D9"/>
<path d="M58.7075 39.6278L58.9546 40.3884L59.7544 40.3884L59.1073 40.8585L59.3545 41.6191L58.7075 41.149L58.0604 41.6191L58.3076 40.8585L57.6606 40.3884L58.4603 40.3884L58.7075 39.6278Z" fill="#D9D9D9"/>
<path d="M62.2853 39.6278L62.5325 40.3884L63.3322 40.3884L62.6852 40.8585L62.9324 41.6191L62.2853 41.149L61.6383 41.6191L61.8855 40.8585L61.2384 40.3884L62.0382 40.3884L62.2853 39.6278Z" fill="#D9D9D9"/>
</svg>
