<svg viewBox="0 0 212 98" fill="none" xmlns="http://www.w3.org/2000/svg">
<path d="M115.65 62.35C115.317 62.35 115.033 62.25 114.8 62.05C114.6 61.8167 114.5 61.5333 114.5 61.2V50.8H104.25C103.917 50.8 103.633 50.7 103.4 50.5C103.2 50.2667 103.1 49.9833 103.1 49.65V48.05C103.1 47.7167 103.2 47.45 103.4 47.25C103.633 47.0167 103.917 46.9 104.25 46.9H114.5V36.8C114.5 36.4667 114.6 36.2 114.8 36C115.033 35.7667 115.317 35.65 115.65 35.65H117.4C117.733 35.65 118 35.7667 118.2 36C118.433 36.2 118.55 36.4667 118.55 36.8V46.9H128.85C129.183 46.9 129.45 47.0167 129.65 47.25C129.883 47.45 130 47.7167 130 48.05V49.65C130 49.9833 129.883 50.2667 129.65 50.5C129.45 50.7 129.183 50.8 128.85 50.8H118.55V61.2C118.55 61.5333 118.433 61.8167 118.2 62.05C118 62.25 117.733 62.35 117.4 62.35H115.65Z" fill="#D9D9D9"/>
<rect x="32.2246" y="1" width="49.0951" height="66.6945" rx="4" fill="#142F4E" stroke="#D9D9D9" stroke-width="2"/>
<rect x="16.3286" y="12.9222" width="49.0951" height="66.6945" rx="4" fill="#142F4E" stroke="#D9D9D9" stroke-width="2"/>
<rect x="1" y="29.3861" width="49.0951" height="66.6945" rx="4" fill="#142F4E" stroke="#D9D9D9" stroke-width="2"/>
<path d="M14.1929 76.9265L22.9926 65.8559L27.2505 73.2363C29.5214 70.7762 34.12 65.8559 34.347 65.8559C34.5741 65.8559 36.7126 58.6647 37.7534 55.0692L41.7275 49.6758" stroke="#D9D9D9" stroke-width="3"/>
<rect x="8.51562" y="39.7406" width="5.10951" height="3.40634" fill="#D9D9D9"/>
<rect x="17.0317" y="39.7406" width="17.0317" height="3.40634" fill="#D9D9D9"/>
<rect x="8.51562" y="80.6167" width="34.0634" height="3.40634" fill="#D9D9D9"/>
<rect x="8.51562" y="84.0231" width="34.0634" height="3.40634" transform="rotate(-90 8.51562 84.0231)" fill="#D9D9D9"/>
<rect x="161.906" y="10.0836" width="49.0951" height="66.6945" rx="4" fill="#142F4E" stroke="#D9D9D9" stroke-width="2"/>
<rect x="170.558" y="20.4381" width="27.8184" height="3.40634" fill="#D9D9D9"/>
<rect x="170.558" y="26.1154" width="27.8184" height="3.40634" fill="#D9D9D9"/>
<rect x="170.558" y="31.7926" width="27.8184" height="3.40634" fill="#D9D9D9"/>
<rect x="170.558" y="37.4697" width="18.7349" height="3.40634" fill="#D9D9D9"/>
<circle cx="194.685" cy="73.5202" r="8.23199" fill="#D9D9D9"/>
<path d="M188.157 91.6873V77.4943H200.93V91.6873L194.969 86.0101L188.157 91.6873Z" fill="#142F4E"/>
<path d="M188.157 77.4943V91.6873L194.969 86.0101L200.93 91.6873V77.4943H187.589" stroke="#D9D9D9" stroke-width="3"/>
</svg>
