<svg viewBox="0 0 190 78" fill="none" xmlns="http://www.w3.org/2000/svg">
<g clip-path="url(#clip0_93_41)">
<path d="M59.5799 37.2309L58.8465 34.945H58.7693L58.0682 37.1539L57.0068 40.4737H60.622L59.5799 37.2309ZM62.1529 44.2495C61.9664 44.2495 61.857 44.2495 61.7734 44.0183L61.0015 41.7323H56.6144L55.836 44.0183C55.8192 44.0902 55.7765 44.1535 55.716 44.1961C55.6555 44.2387 55.5815 44.2577 55.5079 44.2495H54.4723C54.2729 44.2495 54.2278 44.1082 54.2729 43.9541L57.7916 33.9689C57.9588 33.4681 58.1003 33.3268 58.5828 33.3268H59.0395C59.5992 33.3268 59.7278 33.4809 59.8822 33.9689L63.3816 43.9541C63.4459 44.0954 63.3816 44.2495 63.195 44.2495H62.1529Z" fill="white"/>
<path d="M65.9097 43.9542C65.9097 44.2047 65.8325 44.2496 65.6009 44.2496H64.829C64.6103 44.2496 64.501 44.2047 64.501 43.9542V36.0303C64.501 34.6048 65.1442 33.359 67.1319 33.359H71.3003C71.5512 33.359 71.5962 33.4682 71.5962 33.6865V34.3286C71.5962 34.5791 71.5512 34.6561 71.3003 34.6561H67.1448C66.2892 34.6561 65.9161 35.0157 65.9161 35.8248L65.9097 43.9542Z" fill="white"/>
<path d="M79.8879 44.2496H75.5586C73.5388 44.2496 72.9277 43.0231 72.9277 41.5976V36.0367C72.9277 34.6048 73.661 33.359 75.5586 33.359H79.8107C80.0422 33.359 80.0873 33.4682 80.0873 33.6865V34.3286C80.0873 34.5598 80.0422 34.6369 79.8107 34.6369H75.5779C74.7224 34.6369 74.3493 35.0093 74.3493 35.8184V37.8411H79.296C79.5276 37.8411 79.5727 37.931 79.5727 38.1622V38.7529C79.5727 38.9584 79.5276 39.0676 79.296 39.0676H74.3493V41.771C74.3493 42.4645 74.6902 42.9332 75.5779 42.9332H79.8879C80.1323 42.9332 80.1838 43.0296 80.1838 43.2607V43.9029C80.1838 44.1212 80.1323 44.2304 79.8879 44.2304" fill="white"/>
<path d="M88.8807 33.6413C88.8807 33.423 88.9708 33.3781 89.1766 33.3781H90.0193C90.2316 33.3781 90.3152 33.423 90.3152 33.6413V43.986C90.3152 44.2043 90.2316 44.2493 90.0193 44.2493H89.1766C88.9708 44.2493 88.8807 44.2043 88.8807 43.986V39.138H83.3872V43.986C83.3872 44.2043 83.31 44.2493 83.0913 44.2493H82.2358C82.0492 44.2493 81.9399 44.2043 81.9399 43.986V33.6413C81.9399 33.423 82.0492 33.3781 82.2358 33.3781H83.0913C83.31 33.3781 83.3872 33.423 83.3872 33.6413V37.8987H88.8807V33.6413Z" fill="white"/>
<path d="M94.9658 34.6366H91.9296C91.7431 34.6366 91.7109 34.5724 91.7109 34.3862V33.6285C91.7109 33.4551 91.7109 33.3781 91.9296 33.3781H99.5652C99.7453 33.3781 99.7775 33.4551 99.7775 33.6285V34.3862C99.7775 34.5724 99.7453 34.6366 99.5652 34.6366H96.4325V43.986C96.4325 44.2043 96.3553 44.2493 96.1559 44.2493H95.2682C95.0623 44.2493 94.9723 44.2043 94.9723 43.986L94.9658 34.6366Z" fill="white"/>
<path d="M107.433 42.5285C107.664 42.4322 107.741 42.5606 107.786 42.6505L108.082 43.2927C108.211 43.5367 108.147 43.6009 108.005 43.6972C106.986 44.2124 105.853 44.462 104.712 44.4228C101.804 44.4228 100.074 42.7276 100.074 38.9711C100.074 35.4715 102.003 33.224 104.821 33.224C105.824 33.1986 106.818 33.4191 107.716 33.8661C107.844 33.9304 107.902 34.0203 107.793 34.2193L107.439 34.9385C107.375 35.0605 107.33 35.1247 107.156 35.0477C106.442 34.7292 105.668 34.5651 104.885 34.5661C102.518 34.5661 101.54 36.7236 101.54 38.9775C101.54 41.2314 102.344 43.0936 104.962 43.0936C105.818 43.0833 106.662 42.8929 107.439 42.535" fill="white"/>
<path d="M112.315 34.6366H109.285C109.092 34.6366 109.066 34.5724 109.066 34.3862V33.6285C109.066 33.4551 109.066 33.3781 109.285 33.3781H116.934C117.12 33.3781 117.152 33.4551 117.152 33.6285V34.3862C117.152 34.5724 117.12 34.6366 116.934 34.6366H113.782V43.986C113.782 44.2043 113.704 44.2493 113.499 44.2493H112.611C112.411 44.2493 112.315 44.2043 112.315 43.986V34.6366Z" fill="white"/>
<path d="M122.839 38.9648H119.944V42.9718H122.839C124.627 42.9718 125.058 41.7581 125.058 40.9362C125.058 39.7739 124.286 38.9648 122.839 38.9648ZM119.944 37.7705H122.807C123.034 37.7954 123.263 37.7714 123.48 37.7001C123.697 37.6289 123.896 37.512 124.064 37.3574C124.231 37.2028 124.364 37.014 124.452 36.8039C124.541 36.5938 124.583 36.3672 124.576 36.1395C124.577 35.9311 124.534 35.7248 124.45 35.5343C124.365 35.3439 124.241 35.1736 124.085 35.035C123.929 34.8965 123.745 34.7927 123.546 34.7307C123.346 34.6686 123.136 34.6498 122.929 34.6754H119.944V37.7705ZM124.737 38.3099C125.29 38.5123 125.764 38.8881 126.086 39.3811C126.408 39.8741 126.562 40.4579 126.525 41.0454C126.525 42.9718 124.981 44.256 122.993 44.256H119.301C118.741 44.256 118.51 44.0249 118.51 43.4791V34.1553C118.51 33.6095 118.716 33.359 119.301 33.359H122.775C124.672 33.359 126.055 34.136 126.055 36.0303C126.061 36.4773 125.94 36.917 125.707 37.2986C125.474 37.6803 125.138 37.9885 124.737 38.1879V38.3099Z" fill="white"/>
<path d="M132.282 34.4697C130.056 34.4697 129.066 36.4411 129.066 38.7528C129.066 41.3213 129.812 43.1385 132.237 43.1385C134.662 43.1385 135.453 41.0516 135.453 38.817C135.453 36.5823 134.862 34.4697 132.327 34.4697H132.282ZM132.25 44.41C129.201 44.41 127.657 42.4065 127.657 38.817C127.657 35.2274 129.587 33.1919 132.282 33.1919C135.331 33.1919 136.92 35.2917 136.92 38.7528C136.92 42.3744 135.312 44.41 132.25 44.41Z" fill="white"/>
<path d="M61.7475 57.3617C62.0434 57.2397 62.1335 57.3168 62.2236 57.5479L62.751 58.6524C62.8861 58.9414 62.8411 59.0505 62.6545 59.1597C61.5732 59.7683 60.3442 60.0661 59.1037 60.0202C55.7458 60.0202 54.2534 57.9461 54.2534 54.5363C54.2534 51.1266 56.254 48.9433 59.2066 48.9433C60.2508 48.8958 61.2897 49.1169 62.2236 49.5855C62.4551 49.7139 62.4873 49.791 62.3522 50.1249L61.8698 51.1844C61.7668 51.4605 61.7025 51.5247 61.413 51.4156C60.7448 51.1543 60.0337 51.0192 59.316 51.0174C57.6242 51.0174 56.7429 52.52 56.7429 54.5235C56.7429 56.527 57.3862 57.8818 59.406 57.8818C60.2218 57.8557 61.0252 57.6748 61.7733 57.3489" fill="white"/>
<path d="M71.6604 51.0947H68.875V59.513C68.875 59.7763 68.8107 59.8341 68.5019 59.8341H66.8552C66.6107 59.8341 66.5014 59.757 66.5014 59.513V51.0947H63.7803C63.5616 51.0947 63.4844 50.9983 63.4844 50.7864V49.4187C63.4844 49.1554 63.5487 49.0912 63.7803 49.0912H71.6604C71.9048 49.0912 71.9692 49.1554 71.9692 49.4187V50.7864C71.9692 50.9983 71.8791 51.0947 71.6604 51.0947Z" fill="white"/>
<path d="M77.6301 51.1652H75.6296V54.0805H77.6494C78.0367 54.0805 78.4081 53.9269 78.682 53.6535C78.9558 53.3802 79.1097 53.0094 79.1097 52.6228C79.1097 52.2362 78.9558 51.8655 78.682 51.5921C78.4081 51.3187 78.0367 51.1652 77.6494 51.1652H77.6301ZM75.6296 59.5129C75.6296 59.789 75.5717 59.834 75.2629 59.834H73.6419C73.3974 59.834 73.2881 59.7569 73.2881 59.5129V50.0158C73.2881 49.4507 73.4746 49.0782 74.2144 49.0782H77.9839C80.2161 49.0782 81.5862 50.4909 81.5862 52.443C81.5862 53.4897 81.1424 55.9491 77.6752 55.9491H75.6296V59.5129Z" fill="white"/>
<path d="M84.4809 55.6985H86.8996L86.3078 53.7721L85.7417 51.5761H85.6516L85.0663 53.7721L84.4809 55.6985ZM87.4528 57.6249H83.9277L83.323 59.5513C83.2651 59.7504 83.1879 59.8403 82.892 59.8403H81.0909C80.8786 59.8403 80.8336 59.6862 80.8786 59.5385L84.0949 49.9065C84.3072 49.2002 84.5838 49.0782 85.2142 49.0653H86.1405C86.8353 49.0653 87.0926 49.1552 87.337 49.9065L90.5534 59.5385C90.5984 59.6605 90.5534 59.8403 90.354 59.8403H88.5206C88.289 59.8403 88.1411 59.8403 88.0768 59.5963L87.4528 57.6249Z" fill="white"/>
<path d="M98.3306 51.0947H95.5452V59.513C95.5452 59.7763 95.4873 59.8341 95.1786 59.8341H93.5318C93.2809 59.8341 93.178 59.757 93.178 59.513V51.0947H90.4505C90.2382 51.0947 90.1611 50.9983 90.1611 50.7864V49.4187C90.1611 49.1554 90.2189 49.0912 90.4505 49.0912H98.3306C98.575 49.0912 98.6394 49.1554 98.6394 49.4187V50.7864C98.6394 50.9983 98.5493 51.0947 98.3306 51.0947Z" fill="white"/>
<path d="M107.368 59.8468H102.782C100.505 59.8468 99.9385 58.4213 99.9385 57.0214V51.9229C99.9385 50.4653 100.691 49.0782 102.769 49.0782H107.188C107.433 49.0782 107.478 49.1553 107.478 49.4507V50.7349C107.478 50.9982 107.42 51.0753 107.188 51.0753H103.277C102.473 51.0753 102.274 51.4862 102.274 52.0256V53.2072H106.693C106.937 53.2072 106.982 53.2842 106.982 53.5796V54.774C106.982 55.0244 106.937 55.1272 106.693 55.1272H102.274V56.8802C102.274 57.5865 102.627 57.8048 103.277 57.8048H107.342C107.6 57.8048 107.645 57.8626 107.645 58.1709V59.4551C107.645 59.7056 107.587 59.8083 107.342 59.8083" fill="white"/>
<path d="M111.736 59.5129C111.736 59.789 111.691 59.834 111.382 59.834H109.748C109.504 59.834 109.395 59.7569 109.395 59.5129V51.9229C109.395 50.4588 110.102 49.0782 112.225 49.0782H116.664C116.921 49.0782 116.966 49.1553 116.966 49.4507V50.7349C116.966 50.9982 116.908 51.0753 116.664 51.0753H112.733C111.935 51.0753 111.736 51.4734 111.736 52.0256V59.5129Z" fill="white"/>
<path d="M125 52.6613L123.63 54.9666L121.057 59.1726C120.703 59.7441 120.536 59.8147 119.906 59.8147H119.262C118.465 59.8147 118.259 59.4038 118.259 58.7552V49.3736C118.259 49.1553 118.355 49.0782 118.587 49.0782H120.234C120.51 49.0782 120.555 49.1425 120.555 49.3736V56.3022H120.645L121.932 54.1511L124.595 49.791C124.949 49.2067 125.116 49.0975 125.727 49.0975H126.37C127.123 49.0975 127.368 49.3736 127.368 50.1763V59.5771C127.368 59.789 127.277 59.8661 127.046 59.8661H125.399C125.123 59.8661 125.058 59.8083 125.058 59.5771V52.6613H125Z" fill="white"/>
<path d="M137.345 59.8467H135.666C135.421 59.8467 135.344 59.7697 135.344 59.5578V56.071C134.737 56.1601 134.124 56.2052 133.511 56.2058C130.294 56.2058 129.175 54.7353 129.175 52.353V49.3607C129.175 49.1424 129.265 49.0653 129.497 49.0653H131.189C131.452 49.0653 131.51 49.1295 131.51 49.3607V52.1219C131.51 53.5667 132.25 54.1382 133.82 54.1382C134.331 54.1392 134.842 54.0919 135.344 53.9969V49.3607C135.344 49.1424 135.421 49.0653 135.666 49.0653H137.345C137.621 49.0653 137.686 49.1295 137.686 49.3607V59.5449C137.686 59.7761 137.621 59.8339 137.345 59.8339" fill="white"/>
<path d="M147.393 59.8468H142.838C140.561 59.8468 139.995 58.4213 139.995 57.0214V51.9229C139.995 50.4653 140.748 49.0782 142.825 49.0782H147.245C147.489 49.0782 147.534 49.1553 147.534 49.4507V50.7349C147.534 50.9982 147.47 51.0753 147.245 51.0753H143.308C142.504 51.0753 142.304 51.4862 142.304 52.0256V53.2072H146.724C146.968 53.2072 147.013 53.2842 147.013 53.5796V54.774C147.013 55.0244 146.968 55.1272 146.724 55.1272H142.304V56.8802C142.304 57.5865 142.658 57.8048 143.308 57.8048H147.367C147.631 57.8048 147.676 57.8626 147.676 58.1709V59.4551C147.676 59.7056 147.618 59.8083 147.367 59.8083" fill="white"/>
<path d="M156.308 57.3618C156.598 57.2398 156.688 57.3169 156.784 57.548L157.305 58.6525C157.447 58.9415 157.402 59.0507 157.215 59.1598C156.132 59.7686 154.901 60.0664 153.658 60.0203C150.307 60.0203 148.808 57.9462 148.808 54.5364C148.808 51.1267 150.815 48.9435 153.767 48.9435C154.811 48.8964 155.85 49.1175 156.784 49.5856C157.016 49.714 157.048 49.7911 156.906 50.125L156.43 51.1845C156.321 51.4606 156.263 51.5248 155.967 51.4157C155.301 51.1551 154.592 51.0201 153.877 51.0175C152.178 51.0175 151.271 52.5201 151.271 54.5236C151.271 56.5271 151.915 57.882 153.935 57.882C154.753 57.8566 155.558 57.6758 156.308 57.349" fill="white"/>
<path d="M165.263 54.1192C166.324 54.4724 166.588 55.0695 166.819 55.9749L167.771 59.5452C167.804 59.6479 167.816 59.847 167.559 59.847H165.771C165.702 59.8568 165.632 59.8405 165.575 59.8012C165.518 59.762 165.477 59.7027 165.462 59.6351L164.536 56.3024C164.227 55.2429 163.693 55.0182 162.606 55.0182H161.319V59.5773C161.319 59.7957 161.242 59.8213 161.043 59.8213H159.261C159.074 59.8213 158.984 59.8213 158.984 59.5773V49.3032C158.984 49.0848 159.074 49.0527 159.261 49.0527H161.062C161.261 49.0527 161.339 49.0848 161.307 49.3032V53.2202H162.535C162.952 53.2611 163.369 53.1406 163.699 52.8837C164.029 52.6268 164.248 52.253 164.311 51.8396L164.999 49.239C165.013 49.1706 165.053 49.1104 165.11 49.0709C165.168 49.0314 165.239 49.0157 165.308 49.0271H167.032C167.295 49.0271 167.276 49.2261 167.25 49.3353L166.543 52.0836C166.469 52.4746 166.317 52.8469 166.096 53.1779C165.875 53.5089 165.59 53.7919 165.256 54.01L165.263 54.1192Z" fill="white"/>
<path d="M176.114 52.6613L174.744 54.9666L172.171 59.1726C171.817 59.7441 171.65 59.8147 171.013 59.8147H170.402C169.598 59.8147 169.399 59.4038 169.399 58.7552V49.3736C169.399 49.1553 169.495 49.0782 169.72 49.0782H171.367C171.65 49.0782 171.695 49.1425 171.695 49.3736V56.3022H171.785L173.072 54.1511L175.735 49.791C176.089 49.2067 176.262 49.0975 176.874 49.0975H177.517C178.269 49.0975 178.514 49.3736 178.514 50.1763V59.5771C178.514 59.789 178.424 59.8661 178.192 59.8661H176.545C176.269 59.8661 176.205 59.8083 176.205 59.5771V52.6613H176.114Z" fill="white"/>
<path d="M184.406 56.161L182.547 59.5129C182.487 59.636 182.389 59.7366 182.268 59.8002C182.146 59.8637 182.007 59.8868 181.872 59.8661H179.974C179.794 59.8661 179.743 59.6991 179.82 59.5643L183.1 54.2731L180.096 49.3929C180.006 49.2645 180.051 49.0975 180.283 49.0975H182.084C182.483 49.0975 182.592 49.1617 182.727 49.4379L184.419 52.4302L186.098 49.4379C186.252 49.1617 186.362 49.0975 186.741 49.0975H188.51C188.742 49.0975 188.774 49.2645 188.678 49.4058L185.764 54.241L189.038 59.545C189.06 59.573 189.074 59.6068 189.077 59.6423C189.081 59.6779 189.074 59.7137 189.058 59.7455C189.042 59.7773 189.016 59.8038 188.986 59.8218C188.955 59.8397 188.919 59.8484 188.883 59.8468H186.954C186.823 59.8605 186.692 59.834 186.577 59.7709C186.462 59.7077 186.369 59.611 186.31 59.4937L184.406 56.161Z" fill="white"/>
<path d="M61.921 69.1875L60.5509 71.4927L57.9778 75.699C57.624 76.27 57.4567 76.379 56.8263 76.379H56.1831C55.3854 76.379 55.186 75.962 55.186 75.32V65.8997C55.186 65.6814 55.2761 65.6044 55.5076 65.6044H57.1544C57.431 65.6044 57.476 65.6686 57.476 65.8997V72.8091H57.5661L58.8526 70.6644L61.5158 66.2979C61.8696 65.7135 62.0368 65.6044 62.6544 65.6044H63.2976C64.0503 65.6044 64.2947 65.8805 64.2947 66.6831V76.084C64.2947 76.302 64.2046 76.379 63.9731 76.379H62.3263C62.0497 76.379 61.9918 76.315 61.9918 76.084V69.1875H61.921Z" fill="white"/>
<path d="M75.1211 75.451H73.5065C73.2427 75.451 73.1527 75.374 73.1527 75.123V70.821H68.9779V75.123C68.9779 75.387 68.92 75.451 68.6112 75.451H66.9773C66.7329 75.451 66.6235 75.374 66.6235 75.123V65.0161C66.6235 64.7721 66.7329 64.6951 66.9773 64.6951H68.6112C68.92 64.6951 68.9779 64.7529 68.9779 65.0161V68.8689H73.1527V65.0161C73.1527 64.7721 73.2427 64.6951 73.5065 64.6951H75.1211C75.4299 64.6951 75.4878 64.7529 75.4878 65.0161V75.123C75.4878 75.387 75.4299 75.451 75.1211 75.451Z" fill="white"/>
<path d="M84.5259 68.2589L83.1557 70.5641L80.5826 74.77C80.2288 75.342 80.0551 75.451 79.4247 75.451H78.8136C78.0095 75.451 77.8101 75.033 77.8101 74.391V64.9712C77.8101 64.7528 77.9066 64.6758 78.1318 64.6758H79.7785C80.0551 64.6758 80.1066 64.74 80.1066 64.9712V71.8805H80.1967L81.4832 69.7358L84.1463 65.3693C84.5001 64.7849 84.6738 64.6758 85.2849 64.6758H85.9282C86.6873 64.6758 86.9317 64.9519 86.9317 65.7546V75.155C86.9317 75.374 86.8416 75.451 86.6101 75.451H84.9633C84.6867 75.451 84.6224 75.387 84.6224 75.155V68.2589H84.5259Z" fill="white"/>
<path d="M98.0731 73.3895L98.8386 73.4666C99.3918 73.5115 99.4368 73.7748 99.424 74.109L99.2567 77.66C99.2567 77.859 99.1602 77.968 98.9608 77.968H97.6743C97.462 77.968 97.3848 77.872 97.3719 77.647L97.2754 75.419H90.1995C89.4919 75.419 89.2153 75.078 89.2153 74.385V64.9712C89.2153 64.7528 89.3053 64.6758 89.5369 64.6758H91.2287C91.5053 64.6758 91.5696 64.74 91.5696 64.9712V73.4345H95.7059V64.9712C95.7059 64.7528 95.7959 64.6758 96.0146 64.6758H97.7064C97.9959 64.6758 98.0474 64.74 98.0474 64.9712L98.0731 73.3895Z" fill="white"/>
<path d="M107.413 68.2589L106.043 70.5641L103.425 74.77C103.071 75.342 102.904 75.451 102.274 75.451H101.63C100.833 75.451 100.633 75.033 100.633 74.391V64.9712C100.633 64.7528 100.723 64.6758 100.955 64.6758H102.602C102.878 64.6758 102.923 64.74 102.923 64.9712V71.8805H103.02L104.306 69.7358L106.97 65.3693C107.323 64.7849 107.491 64.6758 108.108 64.6758H108.751C109.504 64.6758 109.755 64.9519 109.755 65.7546V75.155C109.755 75.374 109.658 75.451 109.427 75.451H107.78C107.503 75.451 107.446 75.387 107.446 75.155V68.2589H107.413Z" fill="white"/>
<path d="M114.457 71.3026H116.876L116.29 69.3762L115.724 67.1801H115.647L115.062 69.3762L114.457 71.3026ZM117.429 73.229H113.904L113.306 75.155C113.241 75.354 113.171 75.451 112.875 75.451H111.074C110.861 75.451 110.81 75.297 110.861 75.143L114.078 65.5105C114.296 64.7978 114.573 64.6757 115.203 64.6629H116.123C116.818 64.6629 117.082 64.7528 117.326 65.5105L120.542 75.143C120.559 75.176 120.567 75.213 120.566 75.25C120.564 75.287 120.552 75.323 120.532 75.354C120.512 75.385 120.484 75.411 120.45 75.428C120.417 75.445 120.38 75.453 120.343 75.451H118.478C118.246 75.451 118.092 75.419 118.034 75.2L117.429 73.229Z" fill="white"/>
<path d="M128.313 66.6921H125.528V75.123C125.528 75.387 125.463 75.451 125.155 75.451H123.508C123.263 75.451 123.154 75.374 123.154 75.123V66.6921H120.433C120.214 66.6921 120.137 66.5958 120.137 66.3839V65.0161C120.137 64.7529 120.202 64.6951 120.433 64.6951H128.313C128.558 64.6951 128.622 64.7529 128.622 65.0161V66.3839C128.629 66.4259 128.625 66.4688 128.612 66.5092C128.599 66.5496 128.576 66.5863 128.546 66.6164C128.516 66.6464 128.479 66.6689 128.439 66.6821C128.398 66.6953 128.355 66.6987 128.313 66.6921Z" fill="white"/>
<path d="M136.682 68.2589L135.312 70.5641L132.739 74.77C132.385 75.342 132.218 75.451 131.587 75.451H130.944C130.14 75.451 129.941 75.033 129.941 74.391V64.9712C129.941 64.7528 130.037 64.6758 130.269 64.6758H131.915C132.192 64.6758 132.237 64.74 132.237 64.9712V71.8805H132.327L133.614 69.7358L136.283 65.3693C136.637 64.7849 136.804 64.6758 137.422 64.6758H138.065C138.818 64.6758 139.062 64.9519 139.062 65.7546V75.155C139.062 75.374 138.972 75.451 138.741 75.451H137.094C136.817 75.451 136.753 75.387 136.753 75.155V68.2589H136.682Z" fill="white"/>
<path d="M145.932 70.6412H143.719V73.3895H145.932C146.124 73.4081 146.318 73.3863 146.501 73.3257C146.684 73.2651 146.852 73.1669 146.995 73.0375C147.138 72.9081 147.252 72.7503 147.33 72.5743C147.408 72.3983 147.449 72.2079 147.449 72.0154C147.449 71.8228 147.408 71.6325 147.33 71.4564C147.252 71.2804 147.138 71.1226 146.995 70.9932C146.852 70.8638 146.684 70.7656 146.501 70.705C146.318 70.6444 146.124 70.6226 145.932 70.6412ZM143.719 68.7662H145.81C145.959 68.7873 146.11 68.7752 146.254 68.7308C146.397 68.6865 146.529 68.6109 146.64 68.5096C146.751 68.4083 146.837 68.2837 146.894 68.1449C146.951 68.006 146.976 67.8564 146.968 67.7067C146.973 67.5679 146.947 67.4298 146.893 67.3018C146.839 67.1739 146.758 67.0592 146.655 66.9657C146.553 66.8722 146.431 66.8022 146.298 66.7605C146.165 66.7188 146.025 66.7064 145.887 66.7242H143.719V68.7662ZM148.222 69.5624C148.733 69.7758 149.165 70.1414 149.46 70.6091C149.755 71.0769 149.897 71.624 149.869 72.1759C149.869 74.102 148.254 75.451 146.19 75.451H142.33C141.59 75.451 141.404 75.175 141.404 74.513V65.6326C141.404 64.9904 141.59 64.6758 142.33 64.6758H146.1C147.959 64.6758 149.406 65.4592 149.406 67.3984C149.403 67.8137 149.292 68.2212 149.085 68.5813C148.878 68.9413 148.58 69.2417 148.222 69.4533V69.5624Z" fill="white"/>
<path d="M29.8608 5.51587L49.1267 16.5927L58.7501 11.0254L29.8608 5.51587Z" fill="white"/>
<path d="M0.971191 0L20.2372 11.0768L29.8605 5.5159L0.971191 0Z" fill="white"/>
<path d="M20.25 22.1857L39.5159 33.2625L49.1393 27.7017L20.25 22.1857Z" fill="white"/>
<path d="M58.7498 11.0254L49.1394 27.7016L49.1265 16.5927L58.7498 11.0254Z" fill="white"/>
<path d="M49.1394 27.7017L39.529 44.3779L39.5161 33.2625L49.1394 27.7017Z" fill="white"/>
<path d="M29.8606 5.51587L20.2502 22.1857L20.2373 11.0767L29.8606 5.51587Z" fill="white"/>
</g>
<defs>
<clipPath id="clip0_93_41">
<rect width="190" height="78" fill="white"/>
</clipPath>
</defs>
</svg>
