<svg viewBox="0 0 2560 693" fill="none" xmlns="http://www.w3.org/2000/svg">
<path d="M0 346.333V692.333H346.667H693.333V346.333V0.333338H346.667H0V346.333ZM639.333 346.333V639.667L346.4 640.067L53.3333 640.333V346.333V52.3333L346.4 52.6L639.333 53V346.333Z" fill="white"/>
<path d="M164 346.333V528.333H346.667H529.333V346.333V164.333H346.667H164V346.333Z" fill="white"/>
<path d="M961.6 49.9333C930.133 53.5333 905.333 84.2 905.333 119.667C905.333 151.133 926.4 180.467 954 187.667C976.133 193.4 997.2 187.533 1013.33 171.133C1024.53 159.8 1030.4 148.2 1033.07 131.667C1034.8 120.6 1034.8 118.2 1032.93 107C1030.13 90.7333 1024.67 79.6667 1013.2 68.0667C998.8 53.4 982.267 47.5333 961.6 49.9333ZM981.467 75.8C987.2 77.5333 990.267 79.5333 996.934 86.3333C1003.73 93.2667 1005.6 96.0667 1007.87 103.667C1013.47 121.533 1010.13 138.867 998.667 151.4C989.734 161.267 982 164.867 970 164.733C954.133 164.733 940.667 156.067 933.2 141C930.4 135.133 930 132.467 930 119.667C930 106.333 930.267 104.333 933.733 97.4C943.067 78.4667 961.733 70.0667 981.467 75.8Z" fill="white"/>
<path d="M804 119V185.667H816H828V156.867C828 141.133 828.533 128.467 829.067 128.867C829.733 129.267 838.267 142.2 848.133 157.533L866 185.667H879.733H893.6L890.533 180.6C888.8 177.933 878.267 161.267 867.067 143.8L846.8 111.8L849.867 107.8C854.4 101.667 887.333 55.9334 888.533 53.9334C889.2 52.7334 886.4 52.3334 875.6 52.3334H861.6L845.2 75.1334L828.667 97.9334L828.267 75.1334L828 52.3334H816H804V119Z" fill="white"/>
<path d="M1076.8 107.667L1056.8 163H1049.73H1042.67L1042.93 184.6L1043.33 206.333L1054.27 206.733L1065.2 207.133L1065.6 196.733L1066 186.333H1108.67H1151.33L1151.73 196.6L1152.13 207H1163.33H1174.67V185.133V163.133L1167.73 162.733L1160.8 162.333L1156.67 151.667C1154.4 145.8 1145.33 121 1136.67 96.7333L1120.67 52.3333H1108.67H1096.67L1076.8 107.667ZM1123.33 126.733C1130.27 145.933 1136 161.933 1136 162.333C1136 162.733 1124 163 1109.33 163C1088.93 163 1082.67 162.6 1082.67 161.267C1082.67 160.467 1088.4 143.533 1095.47 123.933C1104 100.333 1108.8 88.7333 1109.47 89.9333C1110.13 91 1116.27 107.533 1123.33 126.733Z" fill="white"/>
<path d="M2482.13 246.6C2483.47 252.867 2489.73 260.867 2496 264.333C2501.33 267.267 2503.6 267.667 2515.33 267.667C2529.33 267.667 2534.13 266.2 2541.07 259.8C2544.67 256.6 2549.33 248.2 2549.33 245C2549.33 241.667 2531.87 242.2 2528.67 245.667C2523.07 251.933 2509.87 252.2 2502.8 246.2C2499.6 243.533 2497.47 243 2490.13 243H2481.33L2482.13 246.6Z" fill="white"/>
<path d="M1212.67 278.2C1191.07 285.133 1174.13 302.733 1167.47 325.533C1164.67 335 1164.67 355.4 1167.47 366.2C1172 383.933 1186.67 402.733 1201.6 409.933C1212 415 1221.2 416.733 1234.13 416.067C1243.6 415.533 1246.67 414.733 1255.47 410.467C1283.87 396.333 1298.27 364.867 1292 330.6C1287.73 307.8 1269.33 285.933 1248.4 279.133C1238.67 275.933 1221.33 275.4 1212.67 278.2ZM1246.93 305.267C1254.67 309.4 1261.33 316.733 1265.6 325.533C1270 334.733 1270.67 354.2 1266.8 364.467C1263.2 374.067 1254.93 383.4 1246.13 388.067C1240.53 391 1237.6 391.667 1229.33 391.533C1216.93 391.533 1208.53 387.533 1199.6 377.667C1191.6 368.867 1188.8 360.333 1188.8 345.667C1188.8 336.067 1189.47 333 1192.67 325.933C1197.33 315.533 1208 305.267 1217.07 302.333C1226.13 299.4 1238.4 300.6 1246.93 305.267Z" fill="white"/>
<path d="M1984.67 278.6C1958 288.2 1940.8 311.667 1939.07 341C1937.73 363.667 1944.13 381.8 1958.93 397.133C1971.07 409.8 1982.53 415.133 1999.07 416.067C2023.2 417.267 2041.87 407.8 2055.47 387.4C2066.13 371.267 2070.13 344.867 2064.67 326.067C2059.07 306.733 2045.2 289.533 2028.53 281.533C2020.13 277.533 2018 277.133 2005.33 276.733C1994.53 276.333 1989.87 276.867 1984.67 278.6ZM2019.47 304.733C2027.73 309 2035.2 317 2039.73 326.867C2042.8 333.133 2043.33 336.2 2043.33 346.333C2043.2 361.933 2039.07 371.933 2028.4 381.667C2008.67 399.667 1979.2 393.4 1967.07 368.6C1963.73 361.667 1963.33 359.667 1963.33 346.333C1963.33 334.2 1963.87 330.6 1966.13 325.533C1971.6 313.933 1982.4 304.6 1994 301.533C2000.93 299.667 2012.4 301.133 2019.47 304.733Z" fill="white"/>
<path d="M2364.67 278.733C2354 282.733 2350 285.133 2341.33 293.133C2332.8 301.133 2326 311.933 2321.87 324.333C2318.13 335.533 2318.4 358.067 2322.4 369.933C2328 386.2 2341.73 403 2354.53 409.667C2372 418.467 2394.67 418.467 2412.13 409.667C2425.33 402.867 2439.33 385.4 2444.4 369C2448.67 355.267 2448.27 335.267 2443.6 321.933C2437.2 303.4 2424.4 288.867 2408 281.133C2400.27 277.533 2397.73 277 2385.33 276.733C2374.27 276.333 2370 276.867 2364.67 278.733ZM2394.4 302.333C2403.47 305 2414.67 315.267 2419.6 325.4C2422.93 332.2 2423.33 334.467 2423.33 346.333C2423.33 357.933 2422.8 360.6 2419.87 367C2415.73 375.667 2407.6 384.467 2399.73 388.467C2390.93 393.133 2376.4 392.867 2366.4 387.933C2358 383.8 2351.2 376.733 2346.4 367.133C2343.73 361.8 2343.33 359 2343.33 346.333C2343.33 333 2343.73 331 2346.93 324.867C2357.47 304.867 2374.8 296.6 2394.4 302.333Z" fill="white"/>
<path d="M804 346.333V413.667H813.867H823.733L846.8 372.333L870 330.867L870.667 371.933L871.333 413L883.067 413.4L894.667 413.8V346.333V279H884.933H875.067L852.133 321C839.467 344.067 828.533 363 827.867 363C827.2 363 826.667 345 826.667 321V279H815.333H804V346.333Z" fill="white"/>
<path d="M922.667 346.333V413.667H934.667H946.667V384.333V355H967.333H988V384.333V413.667H1000H1012V346.333V279H1000H988V304.333V329.667H967.333H946.667V304.333V279H934.667H922.667V346.333Z" fill="white"/>
<path d="M1078.67 287.533V295.933L1070.13 296.733C1054.67 298.2 1049.47 300.2 1041.87 307.533C1033.07 316.2 1030 325 1030.93 340.333C1032.27 363.133 1047.33 376.333 1072 376.333H1078.67V395V413.667H1090.67H1102.67V395.133V376.733L1114.4 376.067C1128.13 375.267 1134.27 372.867 1142.27 364.867C1148.93 358.2 1152 349.133 1152 336.333C1152 311.267 1139.6 298.867 1112.4 296.733L1102.67 295.933V287.533V279H1090.67H1078.67V287.533ZM1078.67 337V353.667H1071.33C1063.2 353.667 1056.93 351.133 1054.67 347.133C1052.93 343.8 1052.93 330.2 1054.67 327C1056.93 322.867 1062.8 320.467 1071.07 320.333H1078.67V337ZM1122.67 322.333C1127.87 325 1129.33 328.067 1129.33 336.2C1129.33 349.4 1124.8 353.667 1110.67 353.667H1102.67V337V320.333H1110.67C1115.33 320.333 1120.53 321.267 1122.67 322.333Z" fill="white"/>
<path d="M1316 346.2V413.667H1327.33H1338.67V385.133V356.733L1350.8 355.933C1375.73 354.067 1387.87 342.867 1389.07 320.867C1389.87 306.867 1386.8 297.667 1378.93 289.8C1370.67 281.533 1365.73 280.2 1338.4 279.4L1316 278.733V346.2ZM1363.47 308.733C1368.13 314.2 1367.87 321.933 1362.8 327.133C1359.2 330.733 1358.13 331 1348.8 331H1338.67V317.533V304.067L1349.47 304.6C1359.33 305 1360.53 305.4 1363.47 308.733Z" fill="white"/>
<path d="M1424.93 279.933C1424.53 280.6 1423.87 283.933 1423.47 287.667C1422.93 291.267 1418.27 320.333 1413.2 352.067C1408.13 383.8 1404 410.733 1404 411.8C1404 413.267 1406.27 413.667 1415.07 413.667H1426.27L1429.73 391.933C1431.6 380.067 1434.53 361.533 1436.27 350.733C1438 339.8 1439.73 331 1440.13 331C1440.53 331 1446.53 349.4 1453.47 371.933L1466.13 413L1476.4 413.4C1483.87 413.667 1486.8 413.267 1487.33 412.067C1487.6 411.133 1493.47 392.467 1500.13 370.6C1506.93 348.733 1512.8 331.4 1513.33 331.933C1513.87 332.467 1516.8 349.533 1519.87 369.667C1522.93 389.8 1525.73 407.933 1526.13 409.933C1526.93 413.667 1526.93 413.667 1538.27 413.667H1549.6L1548.8 409.933C1548.4 407.933 1545.87 392.2 1543.2 375C1540.53 357.8 1536.13 329.267 1533.47 311.667L1528.53 279.667L1517.2 279.267L1505.87 278.867L1492.13 323.267C1484.53 347.667 1477.87 368.467 1477.33 369.533C1476.27 371.533 1473.6 363.667 1455.87 305.933L1447.6 279H1436.53C1430.4 279 1425.2 279.4 1424.93 279.933Z" fill="white"/>
<path d="M1606 280.6C1601.73 292.2 1558.67 412.6 1558.67 413.133C1558.67 413.533 1564.13 413.533 1570.8 413.4L1583.07 413L1587.73 399.267L1592.53 385.667H1618.13C1643.6 385.667 1643.87 385.667 1644.8 388.6C1645.2 390.333 1647.47 396.6 1649.6 402.6L1653.6 413.667H1665.6C1677.33 413.667 1677.47 413.667 1676.53 410.6C1675.87 408.067 1664.8 376.867 1635.73 294.6L1630.13 279H1618.4C1610.13 279 1606.4 279.533 1606 280.6ZM1627.2 338.867C1631.2 350.2 1634.27 359.933 1633.87 360.6C1633.07 361.933 1603.07 362.067 1602.27 360.6C1601.33 359 1617.73 316.2 1618.8 317.267C1619.33 317.8 1623.07 327.533 1627.2 338.867Z" fill="white"/>
<path d="M1696 346.333V413.667H1742H1787.87L1788.27 423.267L1788.67 433L1799.73 433.4L1810.67 433.8V412.333V391H1798H1785.33V335V279H1773.33H1761.33V335V391H1740.67H1720V335V279H1708H1696V346.333Z" fill="white"/>
<path d="M1825.33 346.333V413.8L1835.47 413.4L1845.73 413L1868.53 372.2L1891.33 331.267L1892 372.2L1892.67 413L1904.4 413.4L1916 413.8V346.333V279H1906.4H1896.67L1893.87 284.067C1892.4 286.733 1881.87 305.933 1870.53 326.6L1850 364.2L1849.6 321.533L1849.33 279H1837.33H1825.33V346.333Z" fill="white"/>
<path d="M2089.33 346.333V413.667H2101.33H2113.33V384.333V355H2134H2154.67V384.333V413.667H2166.67H2178.67V346.333V279H2166.67H2154.67V304.333V329.667H2134H2113.33V304.333V279H2101.33H2089.33V346.333Z" fill="white"/>
<path d="M2206.67 346.333V413.667H2218.67H2230.67V384.333V354.867L2251.73 355.267L2272.67 355.667L2272.93 384.333L2273.2 413L2284.53 413.4L2296 413.8V346.333V278.867L2284.53 279.267L2273.2 279.667L2272.93 304.333L2272.67 329L2251.73 329.4L2230.67 329.8V304.333V279H2218.67H2206.67V346.333Z" fill="white"/>
<path d="M2469.6 345.933L2470 413H2480H2490L2512.13 373.267C2524.27 351.4 2534.93 332.867 2535.87 331.933C2536.93 330.867 2537.33 340.867 2537.33 372.067V413.667H2548.67H2560V346.333V279H2550.4L2540.67 279.133L2517.33 321.8L2494 364.6L2493.6 321.8L2493.33 279H2481.33H2469.33L2469.6 345.933Z" fill="white"/>
<path d="M1011.6 503.133C1004.53 504.2 995.6 509 990.8 514.2L987.6 517.533L991.067 521.933C992.933 524.333 996 528.067 997.733 530.333L1001.07 534.333L1004.27 531.533C1015.6 521.133 1030 525.133 1031.6 539.133C1032.93 550.333 1027.07 557.133 1014.8 558.6L1008 559.4V570.467V581.667H1016C1032 581.667 1039.2 588.2 1038.27 602.067C1037.87 608.6 1037.2 610.467 1033.73 613.933C1030.27 617.267 1028.13 618.2 1022.27 618.733C1013.87 619.4 1009.47 617.533 1002.53 610.333L997.867 605.533L989.6 611.933C985.2 615.4 981.467 619.133 981.333 620.067C981.333 621.133 985.067 625.667 989.733 630.333C999.333 639.933 1006.8 643 1020.67 643C1033.73 643 1042 639.933 1050 631.933C1058.4 623.533 1061.33 615.667 1061.33 602.333C1061.33 586.867 1056.53 577.267 1044.67 568.733L1040.8 565.933L1045.2 562.2C1051.87 556.6 1054.67 549.533 1054.67 537.533C1054.67 529.4 1054 526.2 1051.2 520.467C1044.4 506.867 1029.07 500.2 1011.6 503.133Z" fill="white"/>
<path d="M1125.07 505.533C1098 514.2 1078.67 542.333 1078.67 573C1078.67 600.467 1093.87 625.8 1117.2 637.4C1127.07 642.2 1127.47 642.333 1143.2 642.333C1158.53 642.333 1159.73 642.067 1168.4 638.067C1195.6 625.133 1211.07 594.867 1206.67 562.733C1204.8 549.4 1201.07 540.067 1192.93 528.867C1177.2 507.133 1149.6 497.667 1125.07 505.533ZM1158.67 531.133C1167.07 534.867 1175.07 543.267 1179.6 552.867C1182.8 560.067 1183.33 562.6 1183.2 573.667C1183.2 583.8 1182.67 587.667 1180.27 592.867C1176 602.333 1169.33 609.8 1161.2 614.333C1154.93 617.8 1152.67 618.333 1143.33 618.333C1134.8 618.333 1131.47 617.667 1126.93 615.267C1118.13 610.6 1111.07 603.533 1107.07 595.267C1103.73 588.333 1103.33 586.333 1103.33 573C1103.33 559.667 1103.6 557.667 1106.93 551.533C1111.6 542.733 1116.27 537.267 1122.27 533.4C1133.33 526.733 1146.53 525.8 1158.67 531.133Z" fill="white"/>
<path d="M1515.33 505.933C1487.73 515.533 1471.47 537.8 1469.73 568.333C1468.4 592.2 1474.53 609.533 1489.47 624.6C1503.73 639 1517.2 643.8 1540.27 642.733C1551.87 642.2 1554.4 641.533 1562.93 637.267C1571.73 633 1588 620.333 1588 617.8C1588 617.267 1584.67 613.133 1580.53 608.6L1573.07 600.333L1566.13 606.333C1555.47 615.4 1548 618.333 1535.33 618.333C1522.8 618.333 1514.4 615.133 1506.27 607.267C1488 589.8 1488.4 555 1506.93 538.333C1515.73 530.333 1522.93 527.667 1535.33 527.8C1548.13 527.933 1554.67 530.467 1565.87 539.667L1573.6 545.933L1581.33 537.533L1589.07 529L1584.27 523.933C1566.67 505.667 1537.87 498.2 1515.33 505.933Z" fill="white"/>
<path d="M1767.6 505.667C1740.27 515.133 1721.33 542.733 1721.33 573C1721.33 599.8 1737.07 626.067 1759.73 637.4C1769.73 642.333 1770 642.333 1786 642.333C1801.87 642.333 1802.27 642.2 1812.13 637.4C1866.4 610.6 1861.6 525.267 1804.67 505.667C1794.27 502.067 1778.13 502.067 1767.6 505.667ZM1802.27 531.267C1809.33 534.6 1819.33 545.267 1823.07 553.4C1825.33 558.467 1826 562.2 1826 573C1826 585.533 1825.73 587 1821.6 595.267C1817.07 604.6 1810.27 611.533 1801.47 615.933C1798 617.667 1793.73 618.333 1786 618.2C1773.07 618.2 1766.4 615.267 1756.93 605.4C1737.47 584.867 1743.6 544.333 1768 531.667C1777.87 526.6 1791.87 526.467 1802.27 531.267Z" fill="white"/>
<path d="M1914.53 505.533C1902.67 509.4 1893.73 515 1885.33 523.8C1868.8 541.533 1862.8 567.267 1869.2 592.6C1872.67 605.8 1877.07 614.333 1885.07 623.133C1898.67 637.933 1914 643.8 1936.8 642.733C1948.8 642.2 1951.47 641.667 1960.27 637.4C1966 634.733 1973.33 629.667 1978 625.4C1986.93 617.133 1986.93 618.067 1976.27 606.467L1970.53 600.2L1964.27 605.8C1953.33 615.4 1946.4 618.2 1933.33 618.333C1923.6 618.333 1920.93 617.8 1914.4 614.6C1904.93 609.933 1897.07 601.133 1893.2 591.133C1890.93 585 1890.53 581.533 1890.93 571C1891.47 556.067 1894.53 548.333 1903.73 539.267C1912.27 530.6 1919.73 527.667 1932.67 527.8C1945.2 527.8 1954.27 531.4 1964.67 540.6L1971.07 546.2L1978.8 537.667L1986.67 529.133L1980.93 523.267C1963.73 505.667 1936.67 498.467 1914.53 505.533Z" fill="white"/>
<path d="M804 573.133V640.6L828.4 640.2C851.867 639.667 852.933 639.533 860.267 635.933C874.533 628.867 881.333 617 881.333 598.867C881.333 586.6 877.467 576.467 869.467 568.333C862.4 561 855.333 558.333 838 556.733L827.333 555.667L826.933 543.4L826.533 531.133L847.6 530.733L868.667 530.333V518.333V506.333L836.4 505.933L804 505.667V573.133ZM849.2 582.733C858.667 587.667 861.733 602.867 854.667 610.333C851.2 614.067 840.667 616.733 832.667 616.067L827.333 615.667L826.933 599.133C826.8 589.933 826.933 581.667 827.333 580.6C828.267 577.933 842.667 579.4 849.2 582.733Z" fill="white"/>
<path d="M902.667 573V640.333L936.4 640.067L970 639.667V627.667V615.667L947.733 615.267L925.333 615V597.667V580.333L947.733 580.067L970 579.667V567.667V555.667L947.6 555.267L925.2 555L925.6 543.267L926 531.667L948 531L970 530.333V518.333V506.333L936.4 505.933L902.667 505.667V573Z" fill="white"/>
<path d="M1230.27 506.6C1229.73 507 1229.33 537.4 1229.33 573.933V640.333H1241.33H1253.33V585V529.667H1274H1294.67L1294.93 584.6L1295.33 639.667L1307.07 640.067L1318.67 640.467V573V505.667H1274.93C1250.8 505.667 1230.67 506.067 1230.27 506.6Z" fill="white"/>
<path d="M1385.33 506.067C1385.33 506.333 1377.2 529.267 1367.2 557.133C1357.2 584.867 1346.53 615 1343.33 623.933L1337.47 640.333H1349.73H1362L1366.8 626.6L1371.6 613H1397.33H1423.07L1427.73 626.6L1432.4 640.333H1444.27C1450.67 640.333 1456 639.8 1456 639.133C1456 638.333 1449.6 619.933 1441.87 598.067C1434.13 576.2 1424 547.533 1419.33 534.333C1414.67 521.133 1410.4 509.267 1410 507.933C1409.2 506.067 1407.2 505.667 1397.2 505.667C1390.67 505.667 1385.33 505.8 1385.33 506.067ZM1405.73 564.2C1409.87 575.933 1413.33 586.067 1413.33 586.867C1413.33 588.6 1381.33 589 1381.33 587.267C1381.2 585.533 1396.67 543 1397.33 543C1397.73 543 1401.47 552.6 1405.73 564.2Z" fill="white"/>
<path d="M1610 507.267C1609.6 508.2 1609.47 538.333 1609.6 574.333L1610 639.667L1621.73 640.067L1633.33 640.467V611V581.667H1654.67H1676V611V640.333H1687.33H1698.67V573V505.667H1687.33H1676V531V556.333H1654.67H1633.33V531V505.667H1622C1614.13 505.667 1610.4 506.2 1610 507.267Z" fill="white"/>
<path d="M1996 518.333V531H2006.67H2017.33V585.667V640.333H2029.33H2041.33V585.667V531H2052.67H2064V518.333V505.667H2030H1996V518.333Z" fill="white"/>
<path d="M2080 573V640.467L2090.27 640.067L2100.4 639.667L2123.2 598.733L2146 557.667L2146.67 598.733L2147.33 639.667L2159.07 640.067L2170.67 640.467V573V505.667H2160.93H2151.2L2140.8 524.6C2135.07 535.133 2124.53 554.333 2117.47 567.267L2104.67 590.867L2104 548.6L2103.33 506.333L2091.73 505.933L2080 505.533V573Z" fill="white"/>
</svg>
