<svg viewBox="0 0 137 24" fill="none" xmlns="http://www.w3.org/2000/svg">
<g clip-path="url(#clip0_125_365)">
<mask id="mask0_125_365" style="mask-type:luminance" maskUnits="userSpaceOnUse" x="0" y="0" width="137" height="24">
<path d="M137 0H0V24H137V0Z" fill="white"/>
</mask>
<g mask="url(#mask0_125_365)">
<path d="M126.914 6.18237L130.009 13.0792H130.467L133.562 6.18237H137.001V17.7137H134.594V9.57323L134.617 9.3471H134.502L131.613 15.6785H128.863L125.974 9.3471H125.859L125.882 9.57323V17.7137H123.475V6.18237H126.914Z" fill="#ffffff"/>
<path d="M46.2154 6.18237V13.8696L46.1924 14.0967H46.4219L51.7173 6.18237H54.3542V17.7137H51.9469V10.0265L51.9698 9.79935H51.7403L46.4448 17.7137H43.8081V6.18237H46.2154Z" fill="#ffffff"/>
<path d="M34.064 6.18237V10.7039H35.7839L39.3375 6.18237H42.088L37.847 11.4953L42.4322 17.7137H39.4523L35.8987 12.8531H34.064V17.7137H31.6577V6.18237H34.064Z" fill="#ffffff"/>
<path d="M119.658 7.68623C118.489 6.53645 117.048 5.96155 115.336 5.96155C113.623 5.96155 112.182 6.53816 111.014 7.6914C109.845 8.8446 109.261 10.2655 109.261 11.9539C109.261 13.6422 109.842 15.0668 111.003 16.2276C112.179 17.3726 113.624 17.9455 115.336 17.9461C117.047 17.9468 118.488 17.3702 119.658 16.2163C120.825 15.0596 121.409 13.6371 121.409 11.9487C121.409 10.2603 120.825 8.8395 119.658 7.68623ZM117.904 14.7413C117.246 15.4424 116.39 15.7928 115.336 15.7928C114.281 15.7928 113.425 15.4424 112.769 14.7413C112.112 14.0404 111.782 13.1095 111.782 11.9487C111.782 10.7879 112.11 9.86085 112.769 9.1674C113.426 8.4582 114.282 8.1039 115.336 8.10458C116.39 8.10525 117.246 8.4558 117.904 9.15608C118.561 9.85703 118.89 10.7879 118.89 11.9487C118.89 13.1095 118.561 14.0404 117.904 14.7413Z" fill="#ffffff"/>
<path d="M81.1754 11.9487C81.1754 10.2596 80.5986 8.83883 79.4452 7.6863C78.291 6.53372 76.8812 5.95882 75.2144 5.96156C73.5456 5.96156 72.1357 6.53818 70.9849 7.6914C69.8341 8.84468 69.258 10.2638 69.2566 11.9487C69.2566 13.6364 69.8296 15.061 70.9756 16.2224C72.1375 17.3675 73.5511 17.9403 75.2166 17.941C77.0514 17.941 78.5952 17.3243 79.8474 16.0909C80.3504 15.551 80.7555 14.9292 81.0428 14.2532L81.0619 14.21H78.54C78.3359 14.5152 78.0796 14.783 77.782 15.0014C77.1412 15.529 76.2854 15.7928 75.2144 15.7928C74.3747 15.8045 73.5592 15.5153 72.9197 14.9788C72.271 14.4422 71.8538 13.7066 71.6681 12.772L71.6618 12.7402H81.1754V11.9487ZM71.7755 10.8181C71.931 10.0329 72.3702 9.32993 73.0116 8.8395C73.6387 8.3544 74.4152 8.09513 75.2122 8.10458C76.1903 8.10458 76.974 8.36843 77.5626 8.89605C78.1363 9.39623 78.5201 10.0741 78.6512 10.8181H71.7755Z" fill="#ffffff"/>
<path d="M66.4924 8.62447C65.491 7.59667 64.2339 7.08273 62.7208 7.08273C61.7245 7.07556 60.7471 7.35024 59.9046 7.87417C59.587 8.08785 59.3054 8.34937 59.0701 8.64915L59.0597 8.66557H58.945C59.0472 7.20538 59.5642 6.06859 60.496 5.25523C61.4277 4.44187 62.7628 4.03485 64.5012 4.03417H67.0775V1.88599H64.3259C61.7434 1.88599 59.7985 2.63596 58.4913 4.13592C57.184 5.63588 56.5311 8.01397 56.5325 11.2702C56.5325 13.3649 57.0595 15.0005 58.1136 16.1771C59.1678 17.3536 60.5512 17.9415 62.2639 17.9408C63.9599 17.9408 65.3391 17.4358 66.4016 16.4257C67.4641 15.4157 67.9953 14.1118 67.9953 12.5138C67.9947 10.9453 67.4937 9.6489 66.4924 8.62447ZM64.5554 14.8655C63.9445 15.4608 63.12 15.7947 62.2608 15.7947C61.4016 15.7947 60.5771 15.4608 59.9661 14.8655C59.3549 14.2488 59.0493 13.4649 59.0493 12.5138C59.0493 11.5627 59.3577 10.7788 59.9744 10.1621C60.5857 9.5454 61.3505 9.23707 62.2691 9.23707C63.1877 9.23707 63.9526 9.5454 64.5638 10.1621C65.175 10.7788 65.4806 11.5627 65.4806 12.5138C65.4806 13.4649 65.1722 14.2488 64.5554 14.8655Z" fill="#ffffff"/>
<path d="M107.312 15.5666L104.676 6.18237H99.5173L96.8812 15.5666H95.7344V20.2021H97.9116V17.7147H106.286V20.2021H108.464V15.5666H107.312ZM99.4024 15.5666L101.352 8.33055H102.844L104.793 15.5666H99.4024Z" fill="#ffffff"/>
<path d="M93.3611 7.6185C92.3107 6.51389 91.0004 5.9616 89.4286 5.9616C88.4497 5.95681 87.4951 6.25761 86.7004 6.82087C86.3645 7.05011 86.0588 7.31977 85.7907 7.6236L85.7605 7.6575H85.6456V6.18258H83.2385V22.0113H85.6456V16.2451H85.7605C86.0323 16.5723 86.3483 16.8614 86.6989 17.1044C87.4973 17.658 88.4519 17.9506 89.4278 17.941C91.0019 17.941 92.3129 17.387 93.3596 16.279C94.407 15.171 94.9285 13.7276 94.9248 11.9488C94.9285 10.1699 94.4077 8.72647 93.3611 7.6185ZM91.4917 14.801C90.8803 15.4636 90.0399 15.7953 88.9697 15.796C87.9613 15.796 87.1555 15.4605 86.5523 14.7897C85.9483 14.1189 85.6463 13.1729 85.6456 11.9518C85.6456 10.7308 85.9439 9.78855 86.5405 9.12525C87.1519 8.44695 87.9613 8.10772 88.9697 8.10772C90.0399 8.10772 90.8803 8.43937 91.4917 9.10267C92.103 9.76597 92.4094 10.7146 92.4116 11.9488C92.4116 13.1842 92.1052 14.1349 91.4917 14.801Z" fill="#ffffff"/>
<path d="M9.70851 7.20822H14.568V12.0257H14.5753V16.8H9.7242V14.4H12.1471V11.9918H12.1419V9.61132H9.70851V11.9918H9.70645V14.3969H7.29079V11.9836H7.28557V9.60922H9.72626V7.20925H4.85739V12.0164H4.86469V16.8H9.70645V19.2H17.0045V11.9918H16.9931V4.80616H9.72626V2.40925H0V12.0164H0.0135594V21.6062H9.70645V24H21.8609V11.9918H21.8452V0H9.70851V2.40308H19.4192V12.0257H19.4327V21.6H9.7242V19.2031H2.43965V11.9836H2.42818V4.80925H9.70851V7.20822Z" fill="#ffffff"/>
</g>
</g>
<defs>
<clipPath id="clip0_125_365">
<rect width="137" height="24" fill="white"/>
</clipPath>
</defs>
</svg>
