<svg viewBox="0 0 744 133" fill="none" xmlns="http://www.w3.org/2000/svg">
<path d="M0 90.9735V97.4803C0 98.707 1.47979 99.3202 2.31979 98.4402C19.9731 80.1602 57.4929 52.3603 125.173 47.747C127.293 47.6003 128.96 45.867 128.96 43.7337V3.82691C128.96 1.76025 127.173 0.160194 125.12 0.373528C109.866 2.05353 52.1865 11.7604 9.31979 64.7337C3.30646 72.1603 0 81.4135 0 90.9735Z" fill="white"/>
<path d="M0 108.133V129.093C0 130.72 1.32 132.027 2.93333 132.027H126.013C127.64 132.027 128.96 130.72 128.96 129.093V73.2933C128.96 71.1599 127.24 69.4266 125.106 69.4266C108.96 69.4266 45.4932 71.5466 2.22656 103.64C0.813229 104.693 0 106.373 0 108.133Z" fill="white"/>
<path d="M403.761 115.653C403.761 118.733 401.254 121.24 398.161 121.24H374.334C371.241 121.24 368.734 118.733 368.734 115.64V103.427C368.734 100.333 371.241 97.8266 374.334 97.8266H398.161C401.254 97.8266 403.761 100.333 403.761 103.427V115.653ZM400.121 87.0266H372.374C363.907 87.0266 357.027 93.9068 357.027 102.387V116.68C357.027 125.16 363.907 132.027 372.374 132.027H400.121C408.601 132.027 415.467 125.16 415.467 116.68V102.387C415.467 93.9068 408.601 87.0266 400.121 87.0266Z" fill="white"/>
<path d="M280.935 87.0266H270.801V102.933C270.801 103.56 270.308 104.067 269.681 104.067H237.268C236.655 104.067 236.148 103.56 236.148 102.933V92.1201C236.148 89.3068 233.868 87.0266 231.054 87.0266H225.708C225.081 87.0266 224.574 87.5333 224.574 88.1599V130.907C224.574 131.52 225.081 132.027 225.708 132.027H235.014C235.641 132.027 236.148 131.52 236.148 130.907V116.253C236.148 115.627 236.655 115.12 237.268 115.12H269.681C270.308 115.12 270.801 115.627 270.801 116.253V126.947C270.801 129.76 273.081 132.027 275.895 132.027H280.935C281.548 132.027 282.054 131.52 282.054 130.907V88.1599C282.054 87.5333 281.548 87.0266 280.935 87.0266Z" fill="white"/>
<path d="M347.601 87.0266H337.48V102.933C337.48 103.56 336.974 104.067 336.347 104.067H303.947C303.32 104.067 302.814 103.56 302.814 102.933V92.1201C302.814 89.3068 300.534 87.0266 297.72 87.0266H292.374C291.747 87.0266 291.24 87.5333 291.24 88.1599V130.907C291.24 131.52 291.747 132.027 292.374 132.027H301.68C302.307 132.027 302.814 131.52 302.814 130.907V116.253C302.814 115.627 303.32 115.12 303.947 115.12H336.347C336.974 115.12 337.48 115.627 337.48 116.253V126.947C337.48 129.76 339.761 132.027 342.561 132.027H347.601C348.227 132.027 348.734 131.52 348.734 130.907V88.1599C348.734 87.5333 348.227 87.0266 347.601 87.0266Z" fill="white"/>
<path d="M614.202 87.0266H577.229C566.522 87.0266 557.855 95.7067 557.855 106.413V132.027C557.855 132.027 560.055 132.027 560.789 132.027C569.695 132.027 569.455 123.48 569.455 123.48V106.84C569.455 101.827 573.522 97.7599 578.536 97.7599H602.602C603.229 97.7599 603.736 98.2666 603.736 98.8933V132.027H609.736C612.829 132.027 615.336 129.533 615.336 126.44V88.1599C615.336 87.5333 614.829 87.0266 614.202 87.0266Z" fill="white"/>
<path d="M734.281 121.893H708.601C704.388 121.893 700.988 118.48 700.988 114.28V104.36C700.988 100.147 704.388 96.7467 708.601 96.7467H734.281C739.641 96.7467 743.988 92.3999 743.988 87.0266H705.708C697.348 87.0266 690.574 93.8132 690.574 102.173V116.893C690.574 125.253 697.348 132.027 705.708 132.027H743.988V131.6C743.988 126.24 739.641 121.893 734.281 121.893Z" fill="white"/>
<path d="M472.707 87.0266H433.601C428.521 87.0266 424.414 91.1466 424.414 96.2266V132.027H431.201C433.854 132.027 436.014 129.88 436.014 127.213V98.8933C436.014 98.2666 436.521 97.7599 437.147 97.7599H469.161C469.788 97.7599 470.294 98.2666 470.294 98.8933V127.213C470.294 129.88 472.441 132.027 475.107 132.027H481.894V96.2266C481.894 91.1466 477.774 87.0266 472.707 87.0266Z" fill="white"/>
<path d="M537.335 115.653C537.335 118.733 534.828 121.24 531.735 121.24H507.908C504.814 121.24 502.308 118.733 502.308 115.64V103.427C502.308 100.333 504.814 97.8266 507.908 97.8266H531.735C534.828 97.8266 537.335 100.333 537.335 103.427V115.653ZM533.695 87.0266H505.948C497.468 87.0266 490.602 93.9068 490.602 102.387V116.68C490.602 125.16 497.468 132.027 505.948 132.027H533.681C542.161 132.027 549.041 125.16 549.041 116.68V102.387C549.041 93.9068 542.161 87.0266 533.695 87.0266Z" fill="white"/>
<path d="M206.467 87.0534L198.28 87.08C197.747 87.08 197.067 87.1999 195.773 88.7066L167.973 121.04C167.84 121.2 167.667 121.293 167.467 121.293C167.067 121.293 166.747 120.907 166.747 120.427V94.6399C166.747 88.3599 162.561 87.0266 159.067 87.0266L156.32 87.0399C155.814 87.0532 155.414 87.5334 155.401 88.1334L155.334 97.6534L155.32 127.36C155.32 129.88 157.04 131.933 159.16 131.933C159.2 131.933 164.04 132.027 165.187 132.027C166.4 132.027 170.053 131.947 170.107 131.947H170.173C172.093 131.947 173.72 130 175.147 128.28C175.32 128.08 175.48 127.893 175.64 127.707L201.707 97.1201C201.827 96.9734 202 96.8933 202.173 96.8933C202.56 96.8933 202.867 97.2532 202.867 97.7066L202.854 123.387H202.84V126.547C202.84 129.573 205.294 132.027 208.334 132.027H212.88C213.574 132.027 214.147 131.467 214.147 130.76V127.76L214.16 96.4933C214.16 90.9466 211.001 87.0534 206.467 87.0534Z" fill="white"/>
<path d="M676.014 87.0534L667.827 87.08C667.294 87.08 666.6 87.1999 665.32 88.7066L637.52 121.04C637.387 121.2 637.2 121.293 637.014 121.293C636.614 121.293 636.28 120.907 636.28 120.427L636.294 94.6399C636.294 88.3599 632.107 87.0266 628.614 87.0266L625.867 87.0399C625.361 87.0532 624.96 87.5334 624.947 88.1334L624.88 97.6534L624.867 127.36C624.867 129.88 626.587 131.933 628.707 131.933C628.747 131.933 633.587 132.027 634.734 132.027C635.947 132.027 639.6 131.947 639.64 131.947H639.72C641.627 131.947 643.267 130 644.694 128.28C644.867 128.08 645.027 127.893 645.187 127.707L671.254 97.1201C671.374 96.9734 671.547 96.8933 671.72 96.8933C672.107 96.8933 672.414 97.2532 672.414 97.7066L672.401 123.387H672.387V126.547C672.387 129.573 674.841 132.027 677.867 132.027H682.427C683.12 132.027 683.694 131.467 683.694 130.76V127.76V96.4933C683.707 90.9466 680.547 87.0534 676.014 87.0534Z" fill="white"/>
<path d="M314.414 8.52481e-05L249.041 0.0266477C248.694 0.0266477 248.414 0.306804 248.414 0.653471C248.427 7.7468 254.187 13.4933 261.281 13.4933H308.961C313.254 13.4933 316.734 16.9734 316.734 21.2668V26.9201H266.707C265.707 26.9201 264.894 27.7334 264.894 28.7467C264.894 33.84 269.027 37.9733 274.121 37.9733H316.734V44.1334C316.734 48.1467 313.494 51.4001 309.481 51.4001L261.201 51.4134C254.708 51.4134 249.414 56.5333 249.428 62.8399V64.5467C249.428 64.7334 249.587 64.8933 249.774 64.8933H314.281C324.961 64.8933 333.628 56.2267 333.628 45.5467V19.2134C333.628 8.60003 325.027 8.52481e-05 314.414 8.52481e-05Z" fill="white"/>
<path d="M215.92 51.6266L197.587 51.6399L179.28 51.6534C178.787 51.6534 178.294 51.5999 177.801 51.5066C177.694 51.4799 177.587 51.44 177.494 51.4133C177.441 51.3867 177.387 51.3733 177.347 51.3599C177 51.2666 176.694 51.1867 176.414 51.0667C176.294 51.0267 176.174 50.9599 176.067 50.8933L175.907 50.8133L175.814 50.7599C175.587 50.6533 175.361 50.5334 175.161 50.4C175.041 50.32 174.921 50.2267 174.801 50.1334L174.667 50.0133L174.547 49.9201C174.387 49.8001 174.214 49.6668 174.067 49.5201C173.934 49.4001 173.827 49.2667 173.72 49.1334L173.614 49.0133L173.52 48.9066C173.4 48.7599 173.267 48.6134 173.147 48.4534C173.04 48.3068 172.947 48.1332 172.854 47.9732L172.774 47.8399L172.72 47.7334C172.627 47.5734 172.534 47.3999 172.454 47.2266C172.374 47.0399 172.294 46.8401 172.227 46.6534L172.201 46.5467L172.174 46.48C172.094 46.28 172.04 46.08 171.987 45.8667C171.947 45.68 171.907 45.4667 171.88 45.28L171.867 45.1599L171.854 45.0266C171.814 44.7599 171.774 44.4667 171.774 44.1467L171.761 21.0667C171.761 20.5734 171.827 20.1199 171.894 19.7732C171.921 19.5866 171.96 19.4 172.014 19.2133C172.094 18.9067 172.174 18.6534 172.267 18.4001C172.347 18.2134 172.427 18.0266 172.52 17.8399C172.627 17.5999 172.747 17.3733 172.894 17.1467C173.001 16.9867 173.107 16.8134 173.227 16.6534C173.387 16.4401 173.561 16.2399 173.734 16.0399C173.854 15.8932 173.987 15.7599 174.134 15.6266C174.334 15.4399 174.547 15.2666 174.761 15.1066L174.854 15.0266C174.974 14.9333 175.094 14.8532 175.227 14.7732C175.454 14.6132 175.707 14.4933 175.961 14.3599L176.094 14.2933C176.214 14.2266 176.334 14.1734 176.454 14.1201C176.747 14.0001 177.041 13.9199 177.361 13.8399L177.507 13.8001C177.614 13.7601 177.707 13.7332 177.814 13.7066C178.307 13.6132 178.787 13.5599 179.267 13.5599H197.587L215.24 13.5467H215.907C220.04 13.5467 223.4 16.9066 223.414 21.0399V44.1334C223.414 48.2667 220.054 51.6266 215.92 51.6266ZM219.32 5.27136e-05L215.24 0.013334H197.574H192.294L175.84 0.0266152C166.107 0.0266152 154.787 7.97323 154.787 18.2399L154.801 44.6133V46.9868C154.801 57.2401 166.121 65.1868 175.867 65.1868L197.601 65.1732H204.614H219.347C229.094 65.1732 240.401 57.2133 240.401 46.9599L240.387 18.2001C240.387 7.96005 229.067 5.27136e-05 219.32 5.27136e-05Z" fill="white"/>
<path d="M423.467 30.8266C425.867 27.6933 427.307 23.7734 427.307 19.5201C427.307 8.82677 418.64 0.159941 407.96 0.159941H343.454C343.254 0.173275 343.094 0.319889 343.094 0.506556V2.22661C343.094 8.51994 348.387 13.6399 354.88 13.6399L404.694 13.6534C408.707 13.6534 411.96 16.9068 411.96 20.9201C411.96 24.2534 409.307 26.96 406.001 27.0667L360.401 27.08C359.401 27.08 358.587 27.8933 358.587 28.8933C358.587 33.9999 362.72 38.1201 367.814 38.1201H408.694C408.787 38.1201 408.88 38.1201 408.973 38.1201C412.333 38.1734 415.04 40.9067 415.04 44.28C415.04 48.2933 411.787 51.5334 407.787 51.5334L354.88 51.5467C348.387 51.5467 343.094 56.6799 343.094 62.9732V64.68C343.094 64.88 343.254 65.0266 343.454 65.0266H411.507C422.2 65.0266 430.867 56.3733 430.867 45.68C430.867 39.6133 427.961 34.2266 423.467 30.8266Z" fill="white"/>
</svg>
