<svg viewBox="0 0 803 248" fill="none" xmlns="http://www.w3.org/2000/svg">
<g clip-path="url(#clip0_1276_25549)">
<path d="M213.375 152.903L223.896 140.196C231.261 146.338 238.837 150.15 248.096 150.15C255.461 150.15 259.88 147.185 259.88 142.314C259.88 137.866 257.144 135.537 243.466 131.936C227.053 127.701 216.531 123.253 216.531 106.734C216.531 91.9091 228.315 82.167 244.939 82.167C256.723 82.167 266.824 85.9791 275.031 92.5444L265.772 106.099C258.617 101.016 251.463 98.0508 244.729 98.0508C237.995 98.0508 234.208 101.228 234.208 105.463C234.208 110.758 237.574 112.664 251.673 116.264C268.087 120.5 277.346 126.43 277.346 141.043C277.346 157.139 265.141 166.246 247.675 166.246C235.47 166.034 223.055 161.586 213.375 152.903Z" fill="white"/>
<path d="M292.914 83.2314H354.149V99.1153H310.801V115.635H348.888V131.73H310.801V148.885H354.78V164.769H292.914V83.2314Z" fill="white"/>
<path d="M366.988 124.106C366.988 101.022 384.454 81.9609 409.285 81.9609C424.646 81.9609 433.063 87.8909 440.639 95.3034L429.907 107.587C423.594 101.869 418.333 98.4802 409.074 98.4802C395.396 98.4802 385.506 109.917 385.506 124.106C385.506 138.084 395.186 149.732 409.074 149.732C418.333 149.732 424.015 145.92 430.328 140.202L441.691 152.485C433.274 161.38 424.015 166.251 408.443 166.251C384.664 166.251 366.988 147.614 366.988 124.106Z" fill="white"/>
<path d="M454.738 129.824V83.2314H472.625V129.401C472.625 142.743 479.148 149.52 490.09 149.52C501.033 149.52 507.556 142.955 507.556 130.036V83.2314H525.443V129.189C525.443 153.968 511.765 166.039 489.88 166.039C467.995 166.039 454.738 153.756 454.738 129.824Z" fill="white"/>
<path d="M543.539 83.2314H580.574C590.885 83.2314 598.882 86.1964 604.142 91.4911C608.561 95.9385 611.087 102.504 611.087 110.34C611.087 123.471 603.932 131.73 593.621 135.542L613.401 164.769H592.569L574.893 138.719H561.215V164.769H543.328V83.2314H543.539ZM579.522 122.835C588.15 122.835 593.2 118.176 593.2 110.975C593.2 103.351 587.939 99.3271 579.101 99.3271H561.425V122.835H579.522Z" fill="white"/>
<path d="M627.289 83.2314H688.314V99.1153H644.965V115.635H683.263V131.73H644.965V148.885H688.945V164.769H627.289V83.2314Z" fill="white"/>
<path d="M736.504 120.083H700.941V137.025H736.504V120.083Z" fill="white"/>
<path d="M760.495 99.7507H735.875V83.2314H803.002V99.7507H778.382V164.769H760.495V99.7507Z" fill="white"/>
<path d="M17.0448 66.0768V41.9334C17.0448 28.3792 27.9872 17.1546 41.6651 17.1546H65.6541V0H41.6651C18.7282 0 0 18.8488 0 41.9334V66.0768H17.0448V66.0768Z" fill="white"/>
<path d="M17.0448 206.066V181.923H0V206.066C0 229.151 18.7282 248 41.6651 248H65.6541V230.845H41.6651C28.1976 230.845 17.0448 219.621 17.0448 206.066Z" fill="white"/>
<path d="M229.367 41.9334V66.0768H246.412V41.9334C246.412 18.8488 227.684 0 204.747 0H180.758V17.1546H204.747C218.214 17.1546 229.367 28.3792 229.367 41.9334Z" fill="white"/>
<path d="M229.367 181.923V206.066C229.367 219.621 218.425 230.845 204.747 230.845H180.758V248H204.747C227.684 248 246.412 229.151 246.412 206.066V181.923H229.367Z" fill="white"/>
<path d="M117.209 134.907L94.0621 152.485L84.1719 135.331L110.896 124.106L84.1719 112.67L94.0621 95.5151L117.209 113.305L113.422 84.2905H132.992L129.204 113.305L152.351 95.5151L162.241 112.67L135.517 124.106L162.241 135.331L152.351 152.485L129.204 134.907L132.992 163.71H113.422L117.209 134.907Z" fill="white"/>
</g>
<defs>
<clipPath id="clip0_1276_25549">
<rect width="803" height="248" fill="white"/>
</clipPath>
</defs>
</svg>
