<svg viewBox="0 0 122 25" fill="none" xmlns="http://www.w3.org/2000/svg">
<path d="M10.2674 12.1936L9.98816 12.0613L3.93082 8.59948L3.65158 8.44513L3.50123 8.73178L0.150359 14.9498L0 15.2365L0.257758 15.3688L6.33657 18.8306L6.59433 18.985L6.74469 18.6983L10.117 12.4803L10.2674 12.1936Z" fill="#D9D9D9"/>
<path d="M15.208 12.1936L15.4872 12.0613L21.5446 8.59948L21.8238 8.44513L21.9527 8.73178L25.325 14.9498L25.4754 15.2365L25.1962 15.3688L19.1388 18.8306L18.8596 18.985L18.7092 18.6983L15.3584 12.4803L15.208 12.1936Z" fill="#D9D9D9"/>
<path d="M14.1551 8.4672L14.198 8.7759L14.4987 8.7318L21.3723 7.71751L21.673 7.67341L21.6301 7.36471L20.6635 0.330809L20.6205 6.10352e-05L20.3198 0.0441601L13.4462 1.05845L13.1455 1.10255L13.1885 1.41125L14.1551 8.4672Z" fill="#D9D9D9"/>
<path d="M10.9546 8.7318L11.2553 8.7759L11.2982 8.4672L12.2648 1.41125L12.3078 1.10255L12.0071 1.05845L5.13351 0.0441601L4.83279 6.10352e-05L4.78983 0.330809L3.82323 7.36471L3.78027 7.67341L4.08099 7.71751L10.9546 8.7318Z" fill="#D9D9D9"/>
<path d="M12.931 14.2002L12.7162 13.9797L12.5014 14.2002L7.60396 19.2275L7.38916 19.448L7.60396 19.6685L12.5014 24.7179L12.7162 24.9384L12.931 24.7179L17.8284 19.6685L18.0432 19.448L17.8284 19.2275L12.931 14.2002Z" fill="#D9D9D9"/>
<path d="M62.1999 6.48285C61.577 6.48285 61.04 6.4167 60.6104 6.26235C60.1808 6.108 59.8157 5.90955 59.5364 5.64495C59.2572 5.40241 59.0424 5.09371 58.892 4.76296C58.7417 4.43221 58.6558 3.92506 58.6128 3.57227H60.3956C60.4386 3.96916 60.6104 4.29991 60.8682 4.54246C61.1474 4.78501 61.5985 4.91731 62.2214 4.91731C62.8443 4.91731 63.3169 4.78501 63.5961 4.54246C63.8969 4.29991 64.0472 3.96916 64.1117 3.57227H65.873C65.83 3.94711 65.7441 4.43221 65.5938 4.76296C65.4434 5.09371 65.2286 5.40241 64.9494 5.64495C64.6486 5.8875 64.2835 6.108 63.8539 6.26235C63.3813 6.4167 62.8443 6.48285 62.1999 6.48285Z" fill="#D9D9D9"/>
<path d="M57.3457 19.6466V7.98224H59.5796V16.4935L60.1166 15.5894L65.1214 7.98224H67.3553V19.6466H65.1214V11.1574L64.6704 11.9071L59.5796 19.6466H57.3457Z" fill="#D9D9D9"/>
<path d="M34.9421 18.8749C33.7822 18.2575 32.837 17.3093 32.1282 16.0745C31.4194 14.8177 31.0757 13.2962 31.0757 11.5102C31.0757 9.74622 31.4194 8.22478 32.1282 6.96794C32.837 5.7111 33.7821 4.78501 34.9635 4.16761C36.1449 3.55022 37.4123 3.24152 38.787 3.24152C39.9898 3.24152 41.0638 3.46201 42.0519 3.90301C43.04 4.34401 43.8347 4.98345 44.4577 5.8434C45.0806 6.68129 45.4887 7.69559 45.6391 8.86423H43.1474C42.997 7.80583 42.503 6.94589 41.7082 6.32849C40.9135 5.7111 39.9254 5.4024 38.787 5.4024C37.7559 5.4024 36.8538 5.64495 36.059 6.13005C35.2643 6.61514 34.6413 7.32074 34.1903 8.22478C33.7392 9.15088 33.5029 10.2534 33.5029 11.5102C33.5029 12.7891 33.7392 13.9136 34.1903 14.8177C34.6413 15.7438 35.2643 16.4494 36.059 16.9124C36.8538 17.3975 37.7559 17.6401 38.787 17.6401C39.9469 17.6401 40.9135 17.3314 41.6868 16.736C42.46 16.1186 42.9541 15.2807 43.1259 14.1782H45.6391C45.4457 15.3689 45.0376 16.4053 44.3932 17.2432C43.7488 18.0811 42.9541 18.7205 41.9875 19.1615C41.0209 19.6025 39.9469 19.823 38.787 19.823C37.3908 19.801 36.102 19.4923 34.9421 18.8749Z" fill="#D9D9D9"/>
<path d="M47.7013 19.3821C47.0998 19.0954 46.6488 18.6985 46.3266 18.1914C46.0044 17.6842 45.8325 17.1109 45.8325 16.4715C45.8325 15.4572 46.1547 14.6634 46.8206 14.046C47.4865 13.4286 48.4531 13.0317 49.6989 12.8553L52.1906 12.5246C52.5343 12.4805 52.7705 12.3702 52.9424 12.2159C53.1142 12.0615 53.2001 11.819 53.2001 11.5323C53.2001 11.0031 52.9639 10.5401 52.5128 10.1873C52.0617 9.83449 51.4603 9.65809 50.687 9.65809C49.9567 9.65809 49.3552 9.83449 48.8827 10.2093C48.4101 10.5842 48.1523 11.0913 48.0879 11.7528H45.897C45.9614 10.937 46.2192 10.2534 46.6273 9.65809C47.0354 9.06275 47.5939 8.5997 48.3027 8.291C48.9901 7.96026 49.7848 7.80591 50.687 7.80591C51.6321 7.80591 52.4698 7.98231 53.1787 8.3351C53.8875 8.6879 54.446 9.173 54.8326 9.81244C55.2192 10.4519 55.4126 11.1795 55.4126 11.9954V16.8684C55.4126 17.1991 55.477 17.4417 55.6059 17.574C55.7348 17.7063 55.9066 17.7945 56.1644 17.7945C56.2932 17.7724 56.4221 17.7724 56.5295 17.7504V19.6467C56.1644 19.7349 55.8207 19.779 55.4985 19.779C54.897 19.779 54.4245 19.6246 54.0378 19.3159C53.6727 19.0072 53.4579 18.5221 53.4149 17.8827C53.1357 18.478 52.6631 18.9631 51.9973 19.3159C51.3314 19.6687 50.5581 19.8451 49.6989 19.8451C48.9686 19.801 48.3027 19.6687 47.7013 19.3821ZM52.4054 17.0227C52.9853 16.3833 53.2646 15.5234 53.2646 14.487V14.024L50.0641 14.5311C49.3982 14.6414 48.9042 14.8398 48.582 15.1706C48.2383 15.4793 48.0879 15.8982 48.0879 16.4053C48.0879 16.8904 48.2597 17.2653 48.6249 17.574C48.9901 17.8606 49.4626 18.015 50.0641 18.015C51.0521 17.9929 51.8254 17.6622 52.4054 17.0227Z" fill="#D9D9D9"/>
<path d="M68.1502 14.0018C68.1502 13.0537 68.1287 11.5763 68.1502 10.8046C68.2146 8.82008 69.0309 4.29987 74.6371 3.41787C76.2481 3.17532 78.4605 2.80048 78.4605 2.80048L78.4391 4.98341C78.4391 4.98341 76.0333 5.27006 74.6371 5.55671C70.4485 6.4387 70.47 9.52568 70.47 9.52568C70.8137 9.01853 71.3077 8.59959 71.9521 8.29089C72.5965 7.98219 73.2839 7.82784 73.9927 7.82784C75.1097 7.82784 76.0548 8.09244 76.871 8.59959C77.6873 9.10673 78.3102 9.83438 78.7398 10.7384C79.1694 11.6425 79.3842 12.6788 79.3842 13.8254C79.3842 14.994 79.1694 16.0304 78.7398 16.9344C78.3102 17.8385 77.6873 18.5441 76.871 19.0733C76.0548 19.5804 75.0882 19.845 73.9497 19.845C69.5678 19.845 68.1502 16.758 68.1502 14.0018ZM75.4963 17.3313C76.0118 17.0006 76.4199 16.5155 76.6992 15.9201C76.9784 15.3027 77.1288 14.6192 77.1288 13.8254C77.1288 12.6347 76.8066 11.6645 76.1837 10.9148C75.5607 10.1872 74.723 9.81233 73.7135 9.81233C73.0476 9.81233 72.4462 9.98873 71.9306 10.3195C71.4151 10.6502 71.0285 11.1353 70.7278 11.7307C70.4485 12.326 70.2982 13.0316 70.2982 13.8254C70.2982 14.6192 70.4485 15.3248 70.7278 15.9201C71.007 16.5375 71.4151 17.0006 71.9306 17.3313C72.4462 17.6621 73.0261 17.8385 73.7135 17.8385C74.3794 17.8385 74.9808 17.6621 75.4963 17.3313Z" fill="#D9D9D9"/>
<path d="M82.9066 16.736C83.5295 17.4637 84.3457 17.8165 85.3982 17.8165C86.15 17.8165 86.773 17.6401 87.31 17.3093C87.847 16.9565 88.1691 16.4935 88.298 15.8761H90.4675C90.3386 16.6919 90.0379 17.4196 89.5653 17.9928C89.0928 18.5882 88.4913 19.0292 87.761 19.3379C87.0307 19.6466 86.2145 19.8009 85.3338 19.8009C84.1954 19.8009 83.2073 19.5363 82.3481 18.9851C81.5104 18.4338 80.8445 17.7062 80.4149 16.8022C79.9638 15.8981 79.749 14.8838 79.749 13.7813C79.749 12.6788 79.9638 11.6866 80.3934 10.7605C80.823 9.85646 81.4459 9.12881 82.2836 8.57757C83.0999 8.04837 84.088 7.76172 85.2264 7.76172C86.3434 7.76172 87.2885 8.02632 88.1047 8.53346C88.9209 9.04061 89.5224 9.72416 89.952 10.5621C90.3601 11.3999 90.5749 12.326 90.5534 13.3183C90.5534 13.6049 90.5319 13.9136 90.5105 14.2664H81.0378V12.4363H88.1262C88.0832 11.9071 87.9329 11.3999 87.7181 10.981C87.4818 10.54 87.1596 10.2093 86.73 9.9667C86.3004 9.72416 85.8064 9.61391 85.2264 9.61391C84.5605 9.61391 83.9806 9.76826 83.465 10.099C82.971 10.4298 82.5844 10.9148 82.3266 11.5322C82.0689 12.1496 81.94 12.8773 81.94 13.7152C81.9829 15.0161 82.2837 16.0084 82.9066 16.736Z" fill="#D9D9D9"/>
<path d="M91.1982 7.96017H93.4322V9.52571C93.7329 8.99651 94.2269 8.57757 94.8713 8.24682C95.5372 7.91607 96.246 7.76172 96.9978 7.76172C98.0933 7.76172 99.0384 8.02632 99.8547 8.53346C100.671 9.04061 101.272 9.76826 101.702 10.6723C102.132 11.5763 102.346 12.6127 102.346 13.7593C102.346 14.9059 102.132 15.9422 101.68 16.8683C101.251 17.7724 100.606 18.5 99.7902 19.0071C98.974 19.5143 98.0074 19.7789 96.8904 19.7789C96.2031 19.7789 95.5372 19.6245 94.9143 19.3379C94.2914 19.0292 93.7973 18.6323 93.4322 18.1472V23.814H91.1982V7.96017ZM98.4585 17.2873C98.974 16.9565 99.3606 16.4714 99.6613 15.8761C99.9406 15.2587 100.091 14.5751 100.091 13.7813C100.091 12.9875 99.9406 12.2819 99.6613 11.6866C99.3821 11.0912 98.974 10.6282 98.4585 10.2754C97.9429 9.94466 97.363 9.76826 96.6756 9.76826C96.0097 9.76826 95.4083 9.9226 94.8928 10.2534C94.3773 10.5841 93.9692 11.0471 93.6899 11.6645C93.4107 12.2819 93.2818 12.9655 93.2818 13.7593C93.2818 14.5751 93.4107 15.2807 93.6899 15.8761C93.9692 16.4935 94.3558 16.9565 94.8928 17.2873C95.4083 17.618 96.0097 17.7723 96.6756 17.7723C97.3415 17.7944 97.9429 17.6401 98.4585 17.2873Z" fill="#D9D9D9"/>
<path d="M101.336 7.96014H103.785L107.136 16.9565L106.083 20.1537L101.336 7.96014ZM112.356 7.96014L107.652 20.4845C107.222 21.609 106.706 22.4689 106.083 23.0863C105.461 23.7037 104.601 24.0124 103.549 24.0124C103.076 24.0124 102.604 23.9463 102.153 23.7919V21.8074C102.561 21.9397 102.969 22.0059 103.356 22.0059C103.764 22.0059 104.107 21.9177 104.365 21.7633C104.644 21.609 104.859 21.3665 105.074 21.0357C105.289 20.705 105.482 20.2419 105.718 19.6245L110.1 7.96014H112.356Z" fill="#D9D9D9"/>
<path d="M114.01 19.0513C113.172 18.5441 112.506 17.8385 112.034 16.9345C111.561 16.0305 111.325 14.9721 111.325 13.7814C111.325 12.5907 111.561 11.5543 112.034 10.6503C112.506 9.74625 113.15 9.04065 114.01 8.53351C114.847 8.02636 115.835 7.78381 116.931 7.78381C117.812 7.78381 118.628 7.93816 119.337 8.26891C120.046 8.59966 120.647 9.08475 121.098 9.74625C121.549 10.4077 121.85 11.1795 121.957 12.1276H119.766C119.659 11.4441 119.337 10.8708 118.821 10.4518C118.306 10.0108 117.683 9.79035 116.974 9.79035C116.308 9.79035 115.707 9.9447 115.213 10.2754C114.719 10.6062 114.31 11.0692 114.031 11.6866C113.752 12.304 113.623 12.9876 113.623 13.7814C113.623 14.9941 113.924 15.9643 114.547 16.714C115.17 17.4416 115.964 17.8165 116.974 17.8165C117.726 17.8165 118.349 17.596 118.843 17.1771C119.337 16.7581 119.659 16.1628 119.809 15.391H122C121.764 16.8463 121.205 17.9488 120.325 18.6985C119.444 19.4482 118.306 19.823 116.931 19.823C115.835 19.801 114.847 19.5584 114.01 19.0513Z" fill="#D9D9D9"/>
</svg>
