<svg viewBox="0 0 562 102" fill="none" xmlns="http://www.w3.org/2000/svg">
<path d="M84.65 76.71L53.93 32.03L13.02 91.52H171.94L113.8 6.96997L79.1 57.42L84.65 76.71Z" fill="white"/>
<path d="M350.64 42.35C350.13 42.49 350.18 42.48 349.66 42.62C335.87 19.64 300.15 33.62 300.73 59.42C300.14 85.23 335.87 99.21 349.66 76.22C350.17 76.36 350.12 76.35 350.64 76.49V87.45H365.49V31.48H350.64V42.34V42.35ZM330.85 74.31C323 74.31 316.64 67.64 316.64 59.42C317.4 39.67 344.31 39.67 345.06 59.42C345.06 67.64 338.7 74.31 330.85 74.31Z" fill="white"/>
<path d="M388.58 36.16C388.2 36.02 388.19 36.02 387.81 35.88V31.48H372.7V87.45H387.81V44.98H410.16V31.49H398.79C394.71 31.49 391.05 33.3 388.58 36.17V36.16Z" fill="white"/>
<path d="M436 44.98H446.92V31.49H436V20.46H421.15V31.48H416.06V44.97H421.15V73.96C421.15 81.41 427.19 87.45 434.64 87.45H452.82V73.96H436V44.97V44.98Z" fill="white"/>
<path d="M281.63 44.98H292.55V31.49H281.63V20.46H266.78V31.48H261.69V44.97H266.78V73.96C266.78 81.41 272.82 87.45 280.27 87.45H298.45V73.96H281.63V44.97V44.98Z" fill="white"/>
<path d="M244.42 48.13C240.75 46.66 235.99 45.17 230.26 43.71C226.54 42.79 223.56 41.95 221.41 41.22C217.47 39.75 213.85 37.84 213.84 33.88C213.89 30.8 215.71 28.54 219.09 27.32C223.39 25.7 231.71 26.02 235.25 28.75C237.48 30.26 238.94 32.09 239.58 34.17H256.33C254.5 25.62 249.23 18.9 241.45 15.22C233.13 10.97 218.93 10.93 210.43 15.11C206.06 17.15 202.68 19.93 200.37 23.33C195.55 30.01 195.76 40.67 200.82 46.15C203.44 49.1 206.62 51.3 210.25 52.72C213.92 54.15 218.69 55.66 224.41 57.2C225.05 57.36 225.72 57.52 226.45 57.7C232.51 59.16 240.8 61.18 240.83 67.02C240.83 68.64 240.34 70.06 239.37 71.25C236.31 74.62 231.81 75.13 227.4 75.17H226.95C219.24 75.17 213.09 71.21 210.77 64.71H194.01C197.7 79.9 211.05 89.81 227.38 89.49H227.56C236.08 89.49 247.57 87.46 254.21 77.86C259.01 71.04 258.84 60.24 253.8 54.73C251.2 51.78 248.05 49.56 244.43 48.12L244.42 48.13Z" fill="white"/>
<path d="M549.79 13.98H530.06L514.7 36.35L509.54 43.87L504.38 36.35L489.01 13.98H469.29L494.51 50.72L469.29 87.46H489.01L504.38 65.08L509.54 57.56L514.7 65.08L530.06 87.46H549.79L524.56 50.72L549.79 13.98Z" fill="white"/>
</svg>
