<svg width="118" height="50" viewBox="0 0 118 50" fill="none" xmlns="http://www.w3.org/2000/svg">
<g clip-path="url(#clip0_125_165)">
<path fill-rule="evenodd" clip-rule="evenodd" d="M62.3516 23.1531H62.5635C64.9907 23.1531 66.9584 25.1208 66.9584 27.5481C66.9584 29.9753 64.9907 31.943 62.5635 31.943H52.8946C50.9196 31.943 49.2489 30.6403 48.6949 28.8472C48.4799 28.1515 49.09 27.5481 49.8182 27.5481C50.4992 27.5481 51.038 28.1302 51.511 28.6414C51.5437 28.6768 51.5762 28.7118 51.6083 28.7463C51.9292 29.0907 52.3868 29.306 52.8946 29.306H62.5635C63.5344 29.306 64.3215 28.519 64.3215 27.5481C64.3215 26.5772 63.5344 25.7901 62.5635 25.7901H61.6845L61.6591 25.7899H52.8949C50.4677 25.7899 48.5 23.8222 48.5 21.3949C48.5 18.9677 50.4677 17 52.8949 17H62.5638C64.5388 17 66.2095 18.3028 66.7635 20.0958C66.9785 20.7915 66.3684 21.3949 65.6402 21.3949C64.9592 21.3949 64.4205 20.8128 63.9474 20.3016C63.9147 20.2662 63.8823 20.2312 63.8501 20.1967C63.5292 19.8523 63.0716 19.637 62.5638 19.637H52.8949C51.924 19.637 51.137 20.424 51.137 21.3949C51.137 22.3658 51.924 23.1529 52.8949 23.1529H62.3262L62.3516 23.1531ZM70.9132 18.3188C70.9132 17.5906 71.5035 17.0003 72.2317 17.0003C72.9599 17.0003 73.5502 17.5906 73.5502 18.3188V30.6246C73.5502 31.3528 72.9599 31.9431 72.2317 31.9431C71.5035 31.9431 70.9132 31.3528 70.9132 30.6246V18.3188ZM79.9459 17.0003C78.8413 17.0003 77.9459 17.8957 77.9459 19.0003V29.9431C77.9459 31.0476 78.8413 31.9431 79.9459 31.9431H91.5701C94.2401 31.9431 96.4046 29.7786 96.4046 27.1086V21.8347C96.4046 19.1647 94.2401 17.0003 91.5701 17.0003H79.9459ZM80.5828 20.6373C80.5828 20.085 81.0305 19.6373 81.5828 19.6373H91.5701C92.7838 19.6373 93.7676 20.6211 93.7676 21.8347V27.1086C93.7676 28.3223 92.7838 29.3061 91.5701 29.3061H81.5828C81.0305 29.3061 80.5828 28.8584 80.5828 28.3061V20.6373ZM111.347 23.1532C112.076 23.1532 112.666 23.7435 112.666 24.4716C112.666 25.1998 112.076 25.7901 111.347 25.7901H106.513C105.785 25.7901 105.195 25.1998 105.195 24.4716C105.195 23.7435 105.785 23.1532 106.513 23.1532H111.347ZM103.875 17.0003C101.205 17.0003 99.041 19.1647 99.041 21.8347V27.1086C99.041 29.7786 101.205 31.9431 103.875 31.9431H116.181C116.909 31.9431 117.5 31.3528 117.5 30.6246C117.5 29.8964 116.909 29.3061 116.181 29.3061H103.875C102.662 29.3061 101.678 28.3223 101.678 27.1086V21.8347C101.678 20.6211 102.662 19.6373 103.875 19.6373H116.181C116.909 19.6373 117.5 19.047 117.5 18.3188C117.5 17.5906 116.909 17.0003 116.181 17.0003H103.875Z" fill="white"/>
<path fill-rule="evenodd" clip-rule="evenodd" d="M38.2138 11.0677L23.5171 2.08633C23.2945 0.898718 22.2522 0 21 0C19.7478 0 18.7055 0.898718 18.483 2.08633L3.78622 11.0677C3.42228 10.869 3.00481 10.7561 2.56097 10.7561C1.14659 10.7561 0 11.9027 0 13.3171C0 14.265 0.515012 15.0927 1.28049 15.5355V33.6353C0.515012 34.0781 0 34.9058 0 35.8537C0 37.2681 1.14659 38.4147 2.56097 38.4147C2.96869 38.4147 3.35416 38.3194 3.69633 38.1499L18.4854 47.0973C18.713 48.2785 19.7523 49.1708 21 49.1708C22.2477 49.1708 23.287 48.2785 23.5147 47.0973L38.3037 38.1499C38.6459 38.3194 39.0313 38.4147 39.4391 38.4147C40.8534 38.4147 42 37.2681 42 35.8537C42 34.9058 41.485 34.0781 40.7195 33.6353V15.5355C41.485 15.0927 42 14.265 42 13.3171C42 11.9027 40.8534 10.7561 39.4391 10.7561C38.9952 10.7561 38.5778 10.869 38.2138 11.0677ZM22.6334 44.6372L36.8832 36.0161C36.8798 35.9624 36.8781 35.9083 36.8781 35.8537C36.8781 34.9058 37.3931 34.0781 38.1586 33.6353V15.6003L30.911 20.0294C30.8959 20.039 30.8807 20.0483 30.8653 20.0573L23.4168 24.6092L30.8623 29.1683C30.9832 29.2383 31.0938 29.3288 31.1883 29.4384C31.2544 29.5148 31.3105 29.5981 31.3561 29.6862C31.4653 29.896 31.5108 30.1241 31.4983 30.3468C31.4905 30.4896 31.4587 30.6325 31.4013 30.7695C31.3344 30.9301 31.2345 31.0781 31.1043 31.2022C31.0301 31.2733 30.9484 31.3342 30.8613 31.3845L22.2805 36.5759V44.3914C22.4052 44.4635 22.5232 44.5458 22.6334 44.6372ZM19.7195 44.3914V36.5759L11.1176 31.3717C10.5126 31.0057 10.3188 30.2184 10.6849 29.6133C11.0509 29.0082 11.8382 28.8145 12.4433 29.1806L21 34.3574L27.7567 30.2696L20.3313 25.7227C19.9297 25.4768 19.7115 25.0452 19.7195 24.6061C19.7129 24.168 19.9314 23.7378 20.3323 23.4928L27.7639 18.9513L21 14.8178L12.4722 20.0292C12.0724 20.2854 11.5452 20.3081 11.1128 20.0439L3.84146 15.6003V33.6353C4.60694 34.0781 5.12195 34.9058 5.12195 35.8537C5.12195 35.9083 5.12024 35.9624 5.11688 36.0161L19.3667 44.6372C19.4769 44.5458 19.5949 44.4635 19.7195 44.3914ZM22.6236 4.54163C22.1817 4.90428 21.6163 5.12195 21 5.12195C20.3838 5.12195 19.8184 4.90428 19.3765 4.54163L5.12117 13.2532C5.12169 13.2745 5.12195 13.2958 5.12195 13.3171C5.12195 13.3385 5.12169 13.3598 5.12117 13.381L11.7805 17.4506L20.3323 12.2245C20.7422 11.974 21.2578 11.974 21.6677 12.2245L30.2195 17.4506L36.8789 13.381C36.8783 13.3598 36.8781 13.3385 36.8781 13.3171C36.8781 13.2958 36.8783 13.2745 36.8789 13.2532L22.6236 4.54163Z" fill="#06EAFD"/>
</g>
<defs>
<clipPath id="clip0_125_165">
<rect width="118" height="50" fill="white"/>
</clipPath>
</defs>
</svg>
